<?xml version="1.0" standalone="no"?><!DOCTYPE svg PUBLIC "-//W3C//DTD SVG 1.1//EN" "http://www.w3.org/Graphics/SVG/1.1/DTD/svg11.dtd"><svg t="1729834361367" class="icon" viewBox="0 0 1024 1024" version="1.1" xmlns="http://www.w3.org/2000/svg" p-id="18183" xmlns:xlink="http://www.w3.org/1999/xlink" width="48" height="48"><path d="M512 512m-512 0a512 512 0 1 0 1024 0 512 512 0 1 0-1024 0Z" fill="#EC0604" p-id="18184"></path><path d="M739.12 343.24q0 23.64-22.36 38.76a93.8 93.8 0 0 1-50.84 16l-100 0.84q0 13.08-1.64 36l47.16-4a69.76 69.76 0 0 1 49.6 15.36q21.12 17.16 21.16 48 0 23.64-21.96 39.16a96.36 96.36 0 0 1-51.28 17.12l-244 1.64q-26.04 0-39.44-13.48a42.16 42.16 0 0 1-13.44-30.6 24 24 0 0 1 0.84-7.32 77.96 77.96 0 0 1 10.16-32.64c5.12-8 16-13.08 32.92-14.68l100.88-9q1.64-15.48 3.24-44.88l-124.44 1.64q-27.64 0.84-40.28-15.08a44.72 44.72 0 0 1-10.16-34.68 71.56 71.56 0 0 1 10.6-32.24q8-12 31.72-16l130.92-8.96q-2.4-37.56-5.68-66.12a16.2 16.2 0 0 1 11.4-18.36 82 82 0 0 1 30.92-5.28 70.96 70.96 0 0 1 17.08 1.64q28.44 8 35.76 44.84 0 0.84 6.52 36.72l113.08-8a71.76 71.76 0 0 1 50.8 15.12q20.76 16.76 20 48.56z m-71.56 261.92q52.88 37.56 52.84 97.92 0 58.72-50 92t-150.08 33.48q-105.76 0-164.32-27.76t-58.56-84q0-38.32 26.44-72.64t76-55.48q49.64-21.16 115.52-21.2 99.28 0.16 152.16 37.68zM324.68 326.92a10.64 10.64 0 0 0 4.88-2.04c0.84-0.84 0.68-2.32-0.4-4.52a12.56 12.56 0 0 0-8.92-4 14.36 14.36 0 0 0-7.32 2.48 12.48 12.48 0 0 0-7.32 6.52 8.68 8.68 0 0 0 0.8 8 3.28 3.28 0 0 0 3.24 1.64q1.64 0 4-2.88a12 12 0 0 1 4.88-3.68c1.72-0.44 3.72-1 6.16-1.52z m29.28 154.6a9.4 9.4 0 0 0 4.48-1.6c1.08-0.84 1.08-1.76 0-2.88a9.56 9.56 0 0 0-8-4.88 15.44 15.44 0 0 0-8 2.44 12.64 12.64 0 0 0-7.32 6.52 8.68 8.68 0 0 0 0.8 8c1.64 1.64 2.72 2.44 3.24 2.44a7.6 7.6 0 0 0 5.28-3.24c1.92-2.16 3.4-3.8 4.48-4.92a13.56 13.56 0 0 1 5.04-1.88z m19.12 177.92a69.76 69.76 0 0 1 24.84-16q13.4-4.92 11.76-8c-1.6-3.28-5.4-4.92-11.36-4.92a39 39 0 0 0-27.68 13.08 48.52 48.52 0 0 0-13 19.16 92.68 92.68 0 0 0-5.28 20.84 31.52 31.52 0 0 0-0.4 11.4c0.52 3.8 2.16 5.72 4.88 5.72a4.32 4.32 0 0 0 4.88-4.92c-0.08-16.92 3.92-29.04 11.36-36.36z m218.8 28.96q0-9-15.44-17.56t-61-16a178.84 178.84 0 0 0-26.84-2.44q-33.36 0-44.32 14.68a62.52 62.52 0 0 0-11 38.36 23.08 23.08 0 0 0 9.36 20.4q9.36 6.52 37.8 6.52a377 377 0 0 0 40-2.44q70.76-8 70.76-32.64zM464.6 226.52a7.12 7.12 0 0 0 1.2 8 3.28 3.28 0 0 0 3.28 1.64c1.08 0 2.68-1.08 4.88-3.24a21.6 21.6 0 0 1 4.88-4 16.4 16.4 0 0 1 5.28-1.24 8.28 8.28 0 0 0 4.88-1.64c0.8-0.8 0.68-2.28-0.4-4.48a11.76 11.76 0 0 0-8-4 13.04 13.04 0 0 0-8 2.44 14.72 14.72 0 0 0-8 6.52z" fill="#FFC967" p-id="18185"></path></svg>