<svg width="60" height="60" viewBox="0 0 60 60" fill="none" xmlns="http://www.w3.org/2000/svg">
<g id="1&#233;&#128;&#137;&#228;&#184;&#173;">
<g id="&#229;&#156;&#134;&#229;&#156;&#136;">
<circle id="&#229;&#156;&#134;&#229;&#189;&#162; 1" cx="30" cy="30" r="30" fill="white"/>
<path id="&#229;&#156;&#134;&#229;&#189;&#162; 3" d="M59 30C59 38.0084 55.7552 45.257 50.5061 50.5061C45.257 55.7552 38.0084 59 30 59C21.9916 59 14.743 55.7552 9.4939 50.5061C4.24484 45.257 1 38.0084 1 30C1 13.9837 13.9837 1 30 1C46.0163 1 59 13.9837 59 30Z" stroke="url(#paint0_linear_545_901)" stroke-width="2"/>
</g>
<g id="&#229;&#155;&#190;&#230;&#160;&#135;1">
<g id="&#231;&#187;&#132;">
<path id="&#232;&#183;&#175;&#229;&#190;&#132;" d="M36.7662 27.4435C36.5265 27.5171 36.2703 27.5606 36.0075 27.5606H33.9481C33.1007 27.5539 32.4142 28.253 32.4142 29.116V30.8287C32.4142 32.2336 31.3533 33.4444 29.977 33.5147C28.5055 33.5883 27.2837 32.3908 27.2837 30.9056V29.7215H31.0314V28.9521C31.0314 28.1861 30.4205 27.5639 29.6683 27.5639H23.9991C22.5408 27.5639 21.3649 26.3196 21.4372 24.821C21.5061 23.4195 22.6951 22.3424 24.0747 22.3424H26.7155C26.8994 22.3424 27.0472 22.4929 27.0472 22.6803V23.6436C27.0472 23.8309 26.8994 23.9815 26.7155 23.9815H24.2356C23.7462 23.9815 23.3094 24.3394 23.247 24.8311C23.1714 25.4298 23.628 25.9416 24.2028 25.9416H26.9782C28.2132 25.9416 29.2117 24.9214 29.2117 23.667V22.4662C29.2117 21.2085 28.2099 20.1882 26.9749 20.1882H23.6838C21.1087 20.1882 19 22.3357 19 24.9582C19 27.5807 21.1087 29.7282 23.6838 29.7282H25.1586V31.2301C25.1586 33.8525 27.2673 36 29.8424 36C32.4175 36 34.5262 33.8525 34.5262 31.2301V29.7248C34.5262 29.7248 34.5097 28.0824 36.763 27.4536L36.7662 27.4435Z" fill="#1B8BFF"/>
<path id="&#232;&#183;&#175;&#229;&#190;&#132;_2" d="M36.3188 20.1782H34.5287V18.77C34.5287 16.1475 32.42 14 29.8449 14C27.2698 14 25.1611 16.1475 25.1611 18.77V19.4925H27.2797V19.1647C27.2797 17.7598 28.3373 16.5489 29.7135 16.4786C31.185 16.4051 32.4069 17.6026 32.4069 19.0877V20.777C32.4069 21.6366 33.0901 22.3324 33.9309 22.3324H35.9247C37.3042 22.3324 38.4932 23.4128 38.5622 24.8144C38.6213 26.042 37.8429 27.0957 36.7622 27.4402C34.509 28.069 34.5254 29.7148 34.5254 29.7148H36.3155C38.8906 29.7148 40.9993 27.5706 40.9993 24.9482C40.9993 22.3257 38.8906 20.1782 36.3155 20.1782H36.3188Z" fill="#07C160"/>
</g>
<path id="&#232;&#129;&#140;&#229;&#183;&#165;e&#229;&#138;&#161;&#229;&#174;&#164;" d="M7.48273 45.14H11.5127V46.02H11.0327V51.25C11.2327 51.19 11.4327 51.12 11.6327 51.06V51.98C11.4327 52.04 11.2327 52.09 11.0327 52.15V54.04H10.1127V52.4C9.31273 52.6 8.47273 52.78 7.60273 52.94L7.37273 52.03L8.04273 51.93V46.02H7.48273V45.14ZM8.94273 51.77C9.33273 51.69 9.72273 51.6 10.1127 51.5V50.23H8.94273V51.77ZM8.94273 49.37H10.1127V48.14H8.94273V49.37ZM8.94273 47.28H10.1127V46.02H8.94273V47.28ZM11.8927 45.31H16.2327V50.2H11.8927V45.31ZM15.3027 49.31V46.21H12.8227V49.31H15.3027ZM12.8027 50.67L13.6227 51.08C13.1927 52.24 12.6827 53.23 12.1027 54.07L11.3127 53.5C11.8927 52.72 12.3827 51.77 12.8027 50.67ZM15.2227 50.64C15.9027 51.73 16.4227 52.68 16.7927 53.49L16.0027 54.05C15.6327 53.16 15.1227 52.18 14.4827 51.1L15.2227 50.64ZM21.5827 46.41H18.2327V45.5H25.9027V46.41H22.5427V52.49H26.5327V53.41H17.5827V52.49H21.5827V46.41ZM29.8427 47.69C30.6827 47.69 31.3327 47.97 31.7727 48.55C32.1727 49.07 32.3827 49.79 32.3927 50.71H28.4727C28.5127 51.21 28.6427 51.6 28.8827 51.87C29.1227 52.13 29.4527 52.27 29.8727 52.27C30.2427 52.27 30.5427 52.18 30.7727 52.01C30.9527 51.87 31.1027 51.64 31.2427 51.34H32.3027C32.1827 51.82 31.9527 52.23 31.5927 52.55C31.1427 52.94 30.5727 53.14 29.8827 53.14C29.1227 53.14 28.5127 52.9 28.0727 52.43C27.5927 51.93 27.3527 51.26 27.3527 50.41C27.3527 49.64 27.5727 49 28.0327 48.48C28.4727 47.95 29.0827 47.69 29.8427 47.69ZM29.8727 48.56C29.4727 48.56 29.1627 48.67 28.9227 48.91C28.7027 49.14 28.5527 49.47 28.4927 49.91H31.2827C31.1827 49.01 30.7127 48.56 29.8727 48.56ZM36.0073 44.76L36.9773 44.9C36.8773 45.14 36.7673 45.37 36.6473 45.58H40.9273V46.35C40.3273 47.04 39.5973 47.64 38.7473 48.14C39.8173 48.54 41.0073 48.81 42.3273 48.93L41.8973 49.82C40.3473 49.64 38.9473 49.26 37.7073 48.67C36.5073 49.21 35.1073 49.6 33.5273 49.84L33.0873 48.95C34.4273 48.78 35.6273 48.5 36.6673 48.11C36.1873 47.83 35.7473 47.51 35.3373 47.17C34.9973 47.46 34.6273 47.73 34.2173 47.98L33.6373 47.22C34.8073 46.55 35.5973 45.73 36.0073 44.76ZM37.6973 47.67C38.3873 47.33 38.9973 46.93 39.5373 46.47H36.0273C35.9973 46.5 35.9773 46.52 35.9673 46.54C36.4873 46.97 37.0673 47.35 37.6973 47.67ZM36.9773 49.28H37.9173C37.9173 49.64 37.8873 49.98 37.8373 50.3H41.2873C41.2673 52.05 41.1173 53.1 40.8373 53.44C40.5573 53.78 40.0573 53.96 39.3573 53.96C39.0173 53.96 38.5973 53.94 38.1173 53.91L37.8773 53.05C38.3973 53.07 38.8173 53.09 39.1373 53.11C39.6473 53.1 39.9673 52.99 40.0973 52.79C40.2273 52.58 40.3073 52.03 40.3373 51.15H37.6273C37.5373 51.39 37.4373 51.62 37.3173 51.83C36.8173 52.73 35.6473 53.47 33.7973 54.06L33.1673 53.29C34.7973 52.81 35.8673 52.23 36.3673 51.54C36.4473 51.41 36.5273 51.28 36.5873 51.15H33.7773V50.3H36.8773C36.9373 49.98 36.9773 49.64 36.9773 49.28ZM44.3173 47.74H43.4073V45.66H47.1873C47.0473 45.38 46.8973 45.13 46.7273 44.89L47.7873 44.71C47.9373 45 48.0773 45.32 48.2173 45.66H51.9873V47.74H51.0773V48.17H49.5573C50.2973 48.77 50.9273 49.37 51.4473 49.96L50.7473 50.67C50.5673 50.43 50.3673 50.18 50.1473 49.94L48.1773 50.09V51.01H51.2873V51.88H48.1773V52.9H52.0673V53.79H43.3273V52.9H47.2173V51.88H44.1273V51.01H47.2173V50.15C46.3173 50.19 45.3973 50.24 44.4573 50.28L44.2473 49.46C44.3273 49.44 44.3973 49.41 44.4473 49.38C44.7873 49.22 45.2273 48.82 45.7773 48.17H44.3173V47.74ZM46.8573 48.17C46.4573 48.71 46.1073 49.13 45.7873 49.43C47.0073 49.38 48.2273 49.31 49.4473 49.22C49.2373 49.01 49.0173 48.8 48.7773 48.6L49.2173 48.17H46.8573ZM51.0173 47.31V46.56H44.3773V47.31H51.0173Z" fill="#1B8BFF"/>
</g>
</g>
<defs>
<linearGradient id="paint0_linear_545_901" x1="15.1071" y1="0" x2="15.1071" y2="29.7857" gradientUnits="userSpaceOnUse">
<stop stop-color="#0E9D2B"/>
<stop offset="0.690647" stop-color="#3D96D6" stop-opacity="0.413607"/>
<stop offset="1" stop-color="white" stop-opacity="0.01"/>
</linearGradient>
</defs>
</svg>
