<?xml version="1.0" encoding="UTF-8"?>
<svg width="26px" height="26px" viewBox="0 0 26 26" version="1.1" xmlns="http://www.w3.org/2000/svg" xmlns:xlink="http://www.w3.org/1999/xlink">
    <title>我的</title>
    <g id="页面-1" stroke="none" stroke-width="1" fill="none" fill-rule="evenodd">
        <g id="我的" transform="translate(-325.000000, -708.000000)" fill-rule="nonzero">
            <g id="编组-21" transform="translate(325.000000, 708.000000)">
                <g id="我的，我" transform="translate(3.000000, 3.000000)">
                    <rect id="矩形" fill="#000000" opacity="0" x="0" y="0" width="20" height="20"></rect>
                    <path d="M12.4,10.2 C15.9348,10.2 18.8,13.0652 18.8,16.6 L18.8,17 C18.8,17.8836556 18.0836556,18.6 17.2,18.6 L3.6,18.6 C2.7163444,18.6 2,17.8836556 2,17 L2,16.6 C2,13.0652 4.8652,10.2 8.4,10.2 L12.4,10.2 L12.4,10.2 Z M12.4,11.4 L8.4,11.4 C5.5692,11.4 3.2668,13.662 3.2016,16.4772 L3.2,16.6 L3.2,17 C3.2,17.2027899 3.35180284,17.3734736 3.5532,17.3972 L3.6,17.4 L17.2,17.4 C17.4027899,17.4 17.5734736,17.2481972 17.5972,17.0468 L17.6,17 L17.6,16.6 C17.6,13.7692 15.338,11.4668 12.5228,11.4016 L12.4,11.4 Z M10.4,1 C12.6092,1 14.4,2.7908 14.4,5 C14.4,7.2092 12.6092,9 10.4,9 C8.1908,9 6.4,7.2092 6.4,5 C6.4,2.7908 8.1908,1 10.4,1 Z M10.4,2.2 C8.8536027,2.2 7.6,3.4536027 7.6,5 C7.6,6.5463973 8.8536027,7.8 10.4,7.8 C11.9463973,7.8 13.2,6.5463973 13.2,5 C13.2,3.4536027 11.9463973,2.2 10.4,2.2 Z" id="形状" fill="#999999"></path>
                </g>
            </g>
        </g>
    </g>
</svg>