<?xml version="1.0" encoding="UTF-8"?>
<svg width="26px" height="26px" viewBox="0 0 26 26" version="1.1" xmlns="http://www.w3.org/2000/svg" xmlns:xlink="http://www.w3.org/1999/xlink">
    <title>编组 30</title>
    <defs>
        <linearGradient x1="50%" y1="0%" x2="50%" y2="100%" id="linearGradient-1">
            <stop stop-color="#5599FF" offset="0%"></stop>
            <stop stop-color="#1B76FF" offset="100%"></stop>
        </linearGradient>
    </defs>
    <g id="页面-1" stroke="none" stroke-width="1" fill="none" fill-rule="evenodd">
        <g id="我的" transform="translate(-252.000000, -793.000000)" fill-rule="nonzero">
            <g id="编组-23" transform="translate(241.000000, 793.000000)">
                <g id="专属福利" transform="translate(14.000000, 3.000000)">
                    <rect id="矩形" fill="#000000" opacity="0" x="0" y="0" width="20" height="20"></rect>
                    <path d="M9.547,6.245 L5.687,6.245 C4.99560565,6.24444953 4.43510248,5.68439369 4.434,4.993 L4.434,3.517 C4.43441133,2.91660561 4.76664295,2.36561253 5.29743759,2.08502271 C5.82823223,1.80443289 6.47064278,1.84020849 6.967,2.178 L10.136,4.338 C10.5135513,4.59674221 10.6787876,5.0710686 10.5437162,5.50838796 C10.4086448,5.94570731 10.0047029,6.24423613 9.547,6.245 L9.547,6.245 Z M6.058,3.1 C5.98831447,3.1005933 5.91976644,3.11773031 5.858,3.15 C5.7187437,3.22139548 5.63195803,3.36552169 5.634,3.522 L5.634,4.993 C5.63396474,5.00696628 5.63961303,5.02034652 5.64958228,5.03012767 C5.65955154,5.03990883 5.6730363,5.04526858 5.687,5.04500963 L9.043,5.04500963 L6.291,3.17 C6.22248523,3.12304053 6.1410508,3.09857526 6.058,3.1 Z" id="形状" fill="#4F95FF"></path>
                    <path d="M14.06,6.24500012 L10.2,6.24500012 C9.74172494,6.24521554 9.33688725,5.94654409 9.20185685,5.50861388 C9.06682645,5.07068367 9.23317675,4.59589343 9.612,4.338 L12.78,2.178 C13.2763572,1.84020849 13.9187678,1.80443289 14.4495624,2.08502271 C14.980357,2.36561253 15.3125887,2.91660561 15.313,3.517 L15.313,4.993 C15.312448,5.68462224 14.7516225,6.24500012 14.06,6.24500012 L14.06,6.24500012 Z M10.7,5.045 L14.06,5.045 C14.0887188,5.045 14.1120056,5.02171881 14.1120056,4.993 L14.1120056,3.517 C14.112805,3.36087691 14.0267407,3.21725445 13.8886877,3.1443406 C13.7506347,3.07142675 13.583492,3.08131585 13.455,3.17 L10.7,5.045 Z" id="形状" fill="#4F95FF"></path>
                    <path d="M14.647,18.324 L5.677,18.324 C4.15227491,18.3223466 2.91665342,17.0867251 2.915,15.562 L2.915,10.068 C2.22836982,9.74649995 1.78842613,9.05816327 1.785,8.3 L1.785,7 C1.78555112,5.92090206 2.65990248,5.04610323 3.739,5.045 L16.586,5.045 C17.6648692,5.0466533 18.5388987,5.92113012 18.54,7 L18.54,8.3 C18.5371635,9.05911688 18.0966715,9.74848107 17.409,10.07 L17.409,15.564 C17.4062451,17.087944 16.1709456,18.322349 14.647,18.324 Z" id="形状" fill="url(#linearGradient-1)"></path>
                    <path d="M14.712,10.237 L5.649,10.237 C5.31762916,10.237 5.04900003,9.96837084 5.04900003,9.637 C5.04900003,9.30562916 5.31762916,9.037 5.649,9.037 L14.712,9.037 C15.0433708,9.037 15.312,9.30562916 15.312,9.637 C15.312,9.96837084 15.0433708,10.237 14.712,10.237 Z" id="路径" fill="#FFFFFF"></path>
                </g>
            </g>
        </g>
    </g>
</svg>