<svg width="60" height="46" viewBox="0 0 60 46" fill="none" xmlns="http://www.w3.org/2000/svg">
<g id="&#229;&#186;&#149;&#233;&#131;&#168;&#232;&#143;&#156;&#229;&#141;&#149;1">
<g id="&#231;&#187;&#132;">
<path id="&#232;&#183;&#175;&#229;&#190;&#132;" d="M35.5359 17.9991C35.3397 18.0593 35.1301 18.0949 34.9151 18.0949H33.2302C32.5368 18.0894 31.9752 18.6614 31.9752 19.3675V20.7687C31.9752 21.9182 31.1072 22.9089 29.9812 22.9664C28.7772 23.0266 27.7775 22.0468 27.7775 20.8317V19.8629H30.8438V19.2334C30.8438 18.6067 30.344 18.0976 29.7285 18.0976H25.0902C23.897 18.0976 22.9349 17.0795 22.994 15.8534C23.0505 14.7067 24.0233 13.8255 25.152 13.8255H27.3126C27.4631 13.8255 27.584 13.9486 27.584 14.1019V14.8901C27.584 15.0434 27.4631 15.1665 27.3126 15.1665H25.2836C24.8832 15.1665 24.5258 15.4594 24.4748 15.8617C24.4129 16.3515 24.7865 16.7703 25.2568 16.7703H27.5276C28.538 16.7703 29.355 15.9356 29.355 14.9093V13.9267C29.355 12.8977 28.5354 12.063 27.5249 12.063H24.8322C22.7253 12.063 21 13.82 21 15.9657C21 18.1113 22.7253 19.8683 24.8322 19.8683H26.0388V21.0971C26.0388 23.2428 27.7641 24.9998 29.871 24.9998C31.9779 24.9998 33.7032 23.2428 33.7032 21.0971V19.8656C33.7032 19.8656 33.6897 18.5218 35.5332 18.0073L35.5359 17.9991Z" fill="#1B8BFF"/>
<path id="&#232;&#183;&#175;&#229;&#190;&#132;_2" d="M35.17 12.0549H33.7054V10.9027C33.7054 8.75702 31.9801 7 29.8732 7C27.7663 7 26.041 8.75702 26.041 10.9027V11.4938H27.7744V11.2256C27.7744 10.0762 28.6397 9.08544 29.7657 9.02797C30.9696 8.96776 31.9693 9.94753 31.9693 11.1627V12.5447C31.9693 13.2481 32.5283 13.8174 33.2163 13.8174H34.8475C35.9762 13.8174 36.949 14.7013 37.0054 15.8481C37.0538 16.8525 36.4169 17.7146 35.5328 17.9964C33.6892 18.511 33.7027 19.8575 33.7027 19.8575H35.1673C37.2742 19.8575 38.9995 18.1032 38.9995 15.9575C38.9995 13.8119 37.2742 12.0549 35.1673 12.0549H35.17Z" fill="#07C160"/>
</g>
<path id="&#232;&#129;&#140;&#229;&#183;&#165;e&#229;&#138;&#161;&#229;&#174;&#164;" d="M7.56156 31.25H11.5316V31.91H10.9916V37.39L11.6516 37.18V37.88C11.4316 37.95 11.2116 38.02 10.9916 38.08V40.01H10.3016V38.26C9.46156 38.48 8.58156 38.68 7.66156 38.85L7.48156 38.17C7.72156 38.13 7.95156 38.1 8.18156 38.06V31.91H7.56156V31.25ZM8.87156 37.93C9.35156 37.83 9.83156 37.71 10.3016 37.59V36.14H8.87156V37.93ZM8.87156 35.48H10.3016V34.04H8.87156V35.48ZM8.87156 33.38H10.3016V31.91H8.87156V33.38ZM12.0016 31.39H16.2216V36.11H12.0016V31.39ZM15.5216 35.43V32.08H12.7016V35.43H15.5216ZM12.9416 36.7L13.5616 37.01C13.1116 38.17 12.5816 39.18 11.9716 40.02L11.3716 39.59C11.9816 38.79 12.5016 37.82 12.9416 36.7ZM15.1816 36.68C15.8816 37.8 16.4216 38.77 16.8016 39.6L16.2016 40.02C15.8216 39.12 15.2916 38.12 14.6216 37.03L15.1816 36.68ZM21.7416 32.29H18.3116V31.6H25.9216V32.29H22.4816V38.62H26.5716V39.31H17.6416V38.62H21.7416V32.29ZM29.8516 33.69C30.6816 33.69 31.3116 33.97 31.7316 34.53C32.1116 35.03 32.3116 35.74 32.3316 36.64H28.2516C28.2916 37.22 28.4416 37.67 28.7216 37.99C29.0016 38.31 29.3916 38.47 29.8816 38.47C30.3016 38.47 30.6516 38.36 30.9116 38.15C31.1316 37.97 31.3016 37.7 31.4316 37.34H32.2316C32.1116 37.84 31.8816 38.24 31.5316 38.56C31.1016 38.94 30.5516 39.14 29.8816 39.14C29.1416 39.14 28.5416 38.89 28.1016 38.41C27.6416 37.91 27.4216 37.25 27.4216 36.41C27.4216 35.65 27.6316 35.01 28.0716 34.5C28.5116 33.96 29.1016 33.69 29.8516 33.69ZM29.8716 34.36C29.4116 34.36 29.0416 34.51 28.7616 34.81C28.4816 35.11 28.3216 35.51 28.2716 36.02H31.5016C31.4016 34.91 30.8516 34.36 29.8716 34.36ZM36.0884 30.8L36.8184 30.9C36.7084 31.17 36.5784 31.42 36.4384 31.66H40.7984V32.24C40.1584 32.98 39.3784 33.61 38.4584 34.13C39.5884 34.61 40.8484 34.92 42.2384 35.06L41.9084 35.73C40.3284 35.55 38.9184 35.15 37.6784 34.53C36.4584 35.09 35.0284 35.5 33.4084 35.75L33.0784 35.07C34.5284 34.87 35.7984 34.55 36.8984 34.11C36.3384 33.78 35.8184 33.4 35.3384 32.98C34.9584 33.32 34.5484 33.63 34.0884 33.91L33.6484 33.33C34.8484 32.64 35.6684 31.8 36.0884 30.8ZM37.6684 33.76C38.4784 33.36 39.1784 32.88 39.7684 32.34H35.9484L35.8184 32.5C36.3784 32.99 36.9984 33.41 37.6684 33.76ZM37.0584 35.25H37.7684C37.7684 35.65 37.7284 36.03 37.6684 36.39H41.1884C41.1684 38.08 41.0184 39.09 40.7284 39.42C40.4384 39.75 39.9384 39.92 39.2284 39.92C38.9084 39.92 38.5184 39.9 38.0584 39.88L37.8784 39.23L39.0584 39.28C39.6584 39.27 40.0284 39.14 40.1884 38.9C40.3384 38.66 40.4284 38.04 40.4584 37.04H37.4984C37.4184 37.3 37.3084 37.55 37.1784 37.79C36.6684 38.69 35.4984 39.44 33.6584 40.02L33.1784 39.43C34.8184 38.95 35.9084 38.34 36.4284 37.61C36.5484 37.43 36.6584 37.24 36.7384 37.04H33.7584V36.39H36.9384C37.0184 36.03 37.0584 35.65 37.0584 35.25ZM44.3384 33.39H50.9584V34.05H46.7984C46.2784 34.75 45.8284 35.25 45.4384 35.57C46.8484 35.51 48.2584 35.44 49.6684 35.34C49.3884 35.06 49.0984 34.79 48.7984 34.52L49.2584 34.08C50.0784 34.76 50.7684 35.44 51.3284 36.11L50.8084 36.64C50.6284 36.39 50.4184 36.14 50.1984 35.9C49.4884 35.95 48.7584 36 48.0184 36.04V37.16H51.2084V37.83H48.0184V39.08H51.9884V39.76H43.3084V39.08H47.2784V37.83H44.1084V37.16H47.2784V36.08C46.3384 36.13 45.3784 36.17 44.3984 36.21L44.2384 35.59C44.2984 35.57 44.3484 35.54 44.3884 35.52C44.7984 35.34 45.3284 34.85 45.9784 34.05H44.3384V33.39ZM47.6084 30.74C47.7684 31.04 47.9284 31.39 48.0884 31.77H51.8284V33.71H51.0984V32.45H44.1984V33.71H43.4684V31.77H47.3084C47.1584 31.45 46.9884 31.15 46.8084 30.88L47.6084 30.74Z" fill="#787878"/>
</g>
</svg>
