<svg width="60" height="60" viewBox="0 0 60 60" fill="none" xmlns="http://www.w3.org/2000/svg">
<g id="4&#233;&#128;&#137;&#228;&#184;&#173;">
<g id="Group 2827">
<circle id="&#229;&#156;&#134;&#229;&#189;&#162; 1" cx="30" cy="30" r="30" fill="white"/>
<path id="&#229;&#156;&#134;&#229;&#189;&#162; 3" d="M59 30C59 38.0084 55.7552 45.257 50.5061 50.5061C45.257 55.7552 38.0084 59 30 59C21.9916 59 14.743 55.7552 9.4939 50.5061C4.24484 45.257 1 38.0084 1 30C1 13.9837 13.9837 1 30 1C46.0163 1 59 13.9837 59 30Z" stroke="url(#paint0_linear_545_1443)" stroke-width="2"/>
</g>
<path id="&#230;&#136;&#145;&#231;&#154;&#132;" d="M25.11 49.37V50.34C24.57 50.52 24 50.68 23.4 50.84V52.93C23.4 53.57 23.06 53.9 22.39 53.9H21.27L21.06 52.99C21.41 53.03 21.74 53.05 22.06 53.05C22.31 53.05 22.44 52.93 22.44 52.69V51.06C21.84 51.19 21.23 51.31 20.59 51.41L20.46 50.46C21.15 50.35 21.81 50.23 22.44 50.1V48.31H20.46V47.4H22.44V46.34C21.94 46.44 21.43 46.52 20.9 46.6L20.7 45.7C22.1 45.55 23.34 45.26 24.42 44.82L24.75 45.71C24.32 45.86 23.87 46 23.4 46.13V47.4H25.56C25.5 46.62 25.47 45.76 25.47 44.82H26.43C26.43 45.8 26.46 46.66 26.52 47.4H29.54V48.31H26.6C26.66 48.97 26.75 49.52 26.87 49.96C26.91 50.15 26.96 50.32 27.01 50.48C27.44 49.96 27.82 49.37 28.14 48.71L28.96 49.14C28.51 50.06 27.98 50.85 27.36 51.51C27.48 51.78 27.59 52.01 27.71 52.19C28.01 52.64 28.24 52.87 28.4 52.87C28.53 52.87 28.66 52.35 28.79 51.31L29.63 51.75C29.38 53.17 29.01 53.89 28.53 53.89C28.1 53.89 27.65 53.59 27.18 53C26.99 52.76 26.82 52.49 26.67 52.17C25.98 52.75 25.21 53.21 24.35 53.54L23.82 52.72C24.76 52.38 25.58 51.89 26.28 51.25C26.16 50.92 26.06 50.58 25.97 50.22C25.83 49.68 25.72 49.04 25.64 48.31H23.4V49.88C24 49.72 24.57 49.55 25.11 49.37ZM27.53 44.91C28.24 45.36 28.84 45.81 29.34 46.26L28.65 46.94C28.23 46.5 27.65 46.03 26.89 45.52L27.53 44.91ZM34.13 46.45V53.41H33.22V52.89H31.64V53.7H30.73V46.45H31.68C31.86 45.91 32 45.36 32.08 44.78L33.03 44.91C32.93 45.46 32.78 45.97 32.59 46.45H34.13ZM31.64 52.01H33.22V50.04H31.64V52.01ZM31.64 49.19H33.22V47.35H31.64V49.19ZM35.93 48.85C36.59 49.67 37.1 50.38 37.45 51L36.7 51.53C36.32 50.87 35.8 50.14 35.16 49.33L35.93 48.85ZM39.29 46.46C39.29 49.91 39.24 52.04 39.14 52.84C39.04 53.56 38.56 53.92 37.71 53.92C37.51 53.92 37.15 53.9 36.65 53.87L36.42 53C36.86 53.02 37.24 53.04 37.56 53.04C37.96 53.04 38.19 52.83 38.25 52.41C38.31 51.91 38.34 50.23 38.36 47.38H35.85C35.57 47.98 35.25 48.53 34.87 49.03L34.3 48.28C34.96 47.32 35.42 46.15 35.66 44.77L36.6 44.89C36.5 45.45 36.36 45.97 36.2 46.46H39.29Z" fill="#1B8BFF"/>
<g id="&#229;&#174;&#185;&#229;&#153;&#168;">
<path id="&#232;&#183;&#175;&#229;&#190;&#132;" d="M27 24.5L22.4974 28.3083C22.1823 28.5814 22.0002 28.9845 22 29.4094V32.5621C22 33.3562 22.6229 34 23.3913 34H36.6087C37.3771 34 38 33.3562 38 32.5621V29.4105L37.9976 29.3257C37.9749 28.9296 37.7949 28.5608 37.5002 28.3065L33 24.5" stroke="#1B8BFF" stroke-width="1.5"/>
<rect id="Rectangle 411" x="25.75" y="15.75" width="8.5" height="9.5" rx="4.25" stroke="#07C160" stroke-width="1.5"/>
</g>
</g>
<defs>
<linearGradient id="paint0_linear_545_1443" x1="15.1071" y1="0" x2="15.1071" y2="29.7857" gradientUnits="userSpaceOnUse">
<stop stop-color="#0E9D2B"/>
<stop offset="0.690647" stop-color="#3D96D6" stop-opacity="0.413607"/>
<stop offset="1" stop-color="white" stop-opacity="0.01"/>
</linearGradient>
</defs>
</svg>
