<?xml version="1.0" encoding="UTF-8"?>
<svg width="26px" height="26px" viewBox="0 0 26 26" version="1.1" xmlns="http://www.w3.org/2000/svg" xmlns:xlink="http://www.w3.org/1999/xlink">
    <title>编组 30</title>
    <g id="页面-1" stroke="none" stroke-width="1" fill="none" fill-rule="evenodd">
        <g id="我的" transform="translate(-98.000000, -793.000000)" fill-rule="nonzero">
            <g id="编组-6备份" transform="translate(98.000000, 793.000000)">
                <g id="学校_学生" transform="translate(3.000000, 3.000000)">
                    <rect id="矩形" opacity="0" x="0" y="0" width="19.9609946" height="19.9609946"></rect>
                    <path d="M10.0503608,10.2300098 C9.6449031,10.2300098 9.29309057,10.175117 8.94127804,10.0553511 L0.960622867,7.01504206 C0.123508654,6.67321002 0,6.14673879 0,5.86354218 C0,5.579098 0.123508654,5.05262677 0.946899684,4.71703255 L8.84895844,1.68046624 C9.45776878,1.44467699 10.5007307,1.44342943 11.1132838,1.68046624 L19.0016193,4.7120423 C19.837486,5.05137921 19.9609946,5.579098 19.9609946,5.86354218 C19.9609946,6.14798635 19.837486,6.67321002 19.0128474,7.01005181 L11.1120362,10.0466181 C10.8525433,10.1651365 10.4944929,10.2300098 10.0503608,10.2300098 L10.0503608,10.2300098 Z M8.81173362,17.7570701 L3.6251004,15.860911 L3.95477206,9.14837336 L9.36295405,11.2080985 C9.56755425,11.2767144 9.77839225,11.3103986 10.0491132,11.3103986 C10.3697367,11.3103986 10.5419003,11.2629912 10.6292296,11.2230692 L15.9924994,9.16084898 L15.9924994,16.3265276 L10.9824918,17.7495847 C10.7217513,17.8693507 10.363701,17.9329764 9.92081639,17.9329764 C9.51660625,17.9329764 9.16479371,17.8768361 8.81173362,17.7570701 Z M10.0478657,18.46392 C6.8353931,18.46392 3.2973068,17.4820886 3.12140054,15.3250536 L3.11890541,9.73098489 C3.11890541,9.38648011 3.39818172,9.10720381 3.7426865,9.10720381 C4.08719128,9.10720381 4.36646758,9.38648011 4.36646758,9.73098489 L4.36646758,15.2090304 C4.45254937,16.3031424 7.05496405,17.2163579 10.0478657,17.2163579 C12.4020155,17.2163579 14.5765163,16.6636878 15.3362817,15.8727334 C15.5184258,15.6843515 15.6020124,15.4959697 15.5932795,15.3001024 L15.5932795,9.77589713 C15.5932795,9.43139235 15.8725558,9.15211605 16.2170606,9.15211605 C16.5615654,9.15211605 16.8408417,9.43139235 16.8408417,9.77589713 L16.8408417,15.2090304 C16.8632978,15.7866516 16.6537073,16.3006473 16.2370216,16.7360464 C15.0131631,18.0098074 12.2385848,18.46392 10.0478657,18.46392 Z" id="形状" fill="#4E95FF"></path>
                </g>
            </g>
        </g>
    </g>
</svg>