<?xml version="1.0" encoding="UTF-8"?>
<svg width="26px" height="26px" viewBox="0 0 26 26" version="1.1" xmlns="http://www.w3.org/2000/svg" xmlns:xlink="http://www.w3.org/1999/xlink">
    <title>编组 30</title>
    <g id="页面-1" stroke="none" stroke-width="1" fill="none" fill-rule="evenodd">
        <g id="我的" transform="translate(-175.000000, -708.000000)" fill-rule="nonzero">
            <g id="编组-23备份-2" transform="translate(175.000000, 708.000000)">
                <g id="商城" transform="translate(2.000000, 2.000000)">
                    <rect id="矩形" fill="#000000" opacity="0" x="0" y="0" width="22.1926207" height="22.1926207"></rect>
                    <path d="M20.0587482,8.27845436 L19.0199862,3.77382915 C18.8208161,2.9095306 18.0620625,2.305952 17.1752246,2.305952 L4.99398984,2.305952 C4.10065016,2.305952 3.34081297,2.91494872 3.14597737,3.78704936 L2.1041812,8.4561687 L2.09572893,8.50233109 C2.0692885,8.68329631 2.05650174,8.84605664 2.05650174,8.99993126 C2.05650174,10.2005867 2.67611798,11.2592874 3.61215244,11.8732688 L3.61215244,17.9935775 C3.61215244,19.0377576 4.46149697,19.8868855 5.50546039,19.8868855 L16.6873771,19.8868855 C17.7315572,19.8868855 18.580685,19.0375409 18.580685,17.9935775 L18.580685,11.8695845 C19.1866476,11.4684269 19.6684268,10.8769849 19.9239454,10.1780473 C20.1508563,9.55886455 20.1961518,8.91974308 20.0587482,8.27845436 Z M17.3184797,17.9933608 C17.3184797,18.3414208 17.0354371,18.6244634 16.6873771,18.6244634 L5.50524367,18.6244634 C5.15718362,18.6244634 4.87414102,18.3414208 4.87414102,17.9933608 L4.87414102,12.3782376 C5.07743683,12.415228 5.28365599,12.4337972 5.49028966,12.4337192 C6.6462998,12.4337192 7.67054126,11.8598319 8.29319165,10.9818797 C8.91584203,11.8598319 9.94030022,12.4337192 11.0960936,12.4337192 C12.2516703,12.4337192 13.2754783,11.8602653 13.8981287,10.9827466 C14.0561211,11.2059731 14.2416376,11.411645 14.4522941,11.5945607 C15.2045459,12.2471191 16.2086319,12.540998 17.2029654,12.3981763 C17.2415424,12.3927582 17.2801194,12.3864732 17.318263,12.379538 L17.318263,17.9933608 L17.3184797,17.9933608 Z M18.7386774,9.74438099 C18.4666878,10.4877471 17.7941907,11.0388783 17.0250343,11.1483243 C16.3824452,11.2389153 15.7623956,11.0599006 15.279316,10.6409715 C14.8031715,10.2276773 14.5300983,9.62951684 14.5300983,8.99971453 L14.5543715,8.23402577 L13.2297494,8.23402577 L13.2676762,8.99971453 C13.2676762,10.1971191 12.2934982,11.1712971 11.0960936,11.1712971 C9.89847233,11.1712971 8.9242943,10.1971191 8.9242943,8.99971453 L8.94856748,8.23402577 L7.62416215,8.23402577 L7.66208899,8.99971453 C7.66208899,10.1971191 6.68791097,11.1712971 5.49028966,11.1712971 C4.29288507,11.1712971 3.31870704,10.1971191 3.31870704,8.99971453 C3.31870704,8.91215771 3.32585896,8.81874931 3.34146315,8.70691931 L4.37805792,4.0616397 C4.44285864,3.77101172 4.69620995,3.56794058 4.99398984,3.56794058 L17.1752246,3.56794058 C17.4708372,3.56794058 17.7237551,3.76927793 17.7900729,4.0573052 L18.825584,8.54719313 C18.9109736,8.95073472 18.8817158,9.35340943 18.7386774,9.74438099 L18.7386774,9.74438099 Z" id="形状" fill="#999999"></path>
                </g>
            </g>
        </g>
    </g>
</svg>