<svg width="60" height="60" viewBox="0 0 60 60" fill="none" xmlns="http://www.w3.org/2000/svg">
<g id="3&#233;&#128;&#137;&#228;&#184;&#173;">
<g id="Group 2827">
<circle id="&#229;&#156;&#134;&#229;&#189;&#162; 1" cx="30" cy="30" r="30" fill="white"/>
<path id="&#229;&#156;&#134;&#229;&#189;&#162; 3" d="M59 30C59 38.0084 55.7552 45.257 50.5061 50.5061C45.257 55.7552 38.0084 59 30 59C21.9916 59 14.743 55.7552 9.4939 50.5061C4.24484 45.257 1 38.0084 1 30C1 13.9837 13.9837 1 30 1C46.0163 1 59 13.9837 59 30Z" stroke="url(#paint0_linear_545_915)" stroke-width="2"/>
</g>
<g id="&#229;&#174;&#185;&#229;&#153;&#168;" clip-path="url(#clip0_545_915)">
<mask id="mask0_545_915" style="mask-type:luminance" maskUnits="userSpaceOnUse" x="18" y="13" width="24" height="24">
<rect id="&#229;&#174;&#185;&#229;&#153;&#168;_2" x="18" y="13" width="24" height="24" fill="white"/>
</mask>
<g mask="url(#mask0_545_915)">
<path id="&#232;&#183;&#175;&#229;&#190;&#132;" d="M36.8296 25.8458V32.603C36.8296 33.0172 36.4937 33.353 36.0796 33.353H24.1733C23.7592 33.353 23.4233 33.0172 23.4233 32.603V25.8458H21.9233V33.353C21.9233 34.1815 22.5948 34.853 23.4233 34.853H36.8296C37.6581 34.853 38.3296 34.1815 38.3296 33.353V25.8458H36.8296Z" fill="#1B8BFF"/>
<path id="Subtract" fill-rule="evenodd" clip-rule="evenodd" d="M39.7579 22.7422C39.82 23.0136 39.853 23.296 39.853 23.5862C39.853 23.5933 39.8529 23.6003 39.8528 23.6074C39.8527 23.6145 39.8526 23.6216 39.8526 23.6288L39.853 23.6314H39.8521C39.8279 25.6869 38.1545 27.3458 36.0932 27.3458C34.873 27.3458 33.7886 26.7643 33.1019 25.8633C32.4151 26.7643 31.3307 27.3458 30.1105 27.3458C28.8995 27.3458 27.8226 26.7729 27.1349 25.8837C26.4475 26.7729 25.3703 27.3458 24.1593 27.3458C22.0982 27.3458 20.4245 25.6869 20.4004 23.6314H20.3999L20.4004 23.6286C20.4004 23.6215 20.4003 23.6145 20.4001 23.6074C20.4 23.6003 20.3999 23.5932 20.3999 23.5862C20.3997 23.3022 20.4316 23.0192 20.4948 22.7424L20.5173 22.6446C20.8168 21.3401 21.1164 20.0359 21.378 18.7233L21.7998 16.6067C21.9397 15.9052 22.5557 15.3999 23.271 15.3999H36.9819C37.6972 15.3999 38.3132 15.9052 38.4529 16.6065L38.8747 18.7231C39.137 20.0389 39.4374 21.3467 39.7377 22.6542L39.7579 22.7422ZM37.6164 25.2554C38.0828 24.8286 38.3451 24.2415 38.3526 23.6138L38.3533 23.5758C38.3527 23.4083 38.3335 23.2413 38.2961 23.078L38.2731 22.9784C37.9764 21.6861 37.6696 20.3497 37.4038 19.0165L37.1022 17.5034C37.0323 17.1526 36.7244 16.8999 36.3667 16.8999H23.8865C23.5288 16.8999 23.2208 17.1526 23.151 17.5034L22.8494 19.0165C22.5837 20.3494 22.277 21.6851 21.9804 22.977L21.9801 22.9784L21.9571 23.078C21.9198 23.2404 21.9006 23.4083 21.8999 23.5772L21.9004 23.6054V23.6115V23.6136C21.9079 24.2384 22.1676 24.8227 22.6297 25.249C23.0486 25.6353 23.6017 25.8486 24.1712 25.8458C24.8715 25.8425 25.5189 25.5223 25.9487 24.9664L26.5419 24.199C26.8422 23.8107 27.4283 23.8107 27.7286 24.199L28.3218 24.9664C28.754 25.5254 29.406 25.846 30.1108 25.846C30.8216 25.846 31.4772 25.5209 31.9094 24.9542L32.5058 24.1719C32.8058 23.7781 33.3983 23.7781 33.6986 24.1719L34.2951 24.9542C34.7219 25.5139 35.3669 25.838 36.0676 25.8458C36.6388 25.8521 37.195 25.6412 37.6164 25.2554Z" fill="#07C160"/>
<path id="&#232;&#183;&#175;&#229;&#190;&#132;_2" d="M30.1265 17.9382C29.7123 17.9382 29.3765 18.274 29.3765 18.6882V20.0007H28.064C27.6498 20.0007 27.314 20.3365 27.314 20.7507C27.314 21.1648 27.6498 21.5007 28.064 21.5007H29.3765V22.8132C29.3765 23.2273 29.7123 23.5632 30.1265 23.5632C30.5406 23.5632 30.8765 23.2273 30.8765 22.8132V21.5007H32.189C32.6031 21.5007 32.939 21.1648 32.939 20.7507C32.939 20.3365 32.6031 20.0007 32.189 20.0007H30.8765V18.6882C30.8765 18.274 30.5406 17.9382 30.1265 17.9382Z" fill="#07C160"/>
</g>
</g>
<path id="&#231;&#166;&#143;&#229;&#136;&#169;" d="M19.03 49.12H17.34V49.73H19.15V50.47H17.34V51.03H19.46V51.81H17.34V52.69H16.44V51.81H14.88V51.03H16.44V50.47H15.2V49.73H16.44V49.12H15.28V48.36H16.44V47.73H14.88V46.97H16.44V46.33H15.28V45.57H16.44V44.86H17.34V45.57H19.03V46.97H19.6V47.73H19.03V49.12ZM17.34 46.33V46.97H18.19V46.33H17.34ZM17.34 47.73V48.36H18.19V47.73H17.34ZM12.72 45.67H14.81V46.45C14.43 47.23 14.07 47.88 13.72 48.42H14.87V48.95C14.84 50.13 14.65 51.14 14.3 51.98C14.59 52.26 14.91 52.48 15.25 52.63C15.77 52.85 16.58 52.98 17.67 53.02C18.36 53.02 19.01 53 19.63 52.98L19.46 53.87H18.26C16.46 53.85 15.24 53.66 14.59 53.29C14.33 53.15 14.1 52.98 13.88 52.78C13.56 53.27 13.16 53.68 12.7 54.01L12.24 53.2C12.66 52.9 13 52.53 13.28 52.08C12.88 51.5 12.57 50.78 12.33 49.94L13.1 49.65C13.23 50.22 13.43 50.73 13.7 51.17C13.89 50.59 14.01 49.94 14.05 49.22H12.62V48.54C13.06 47.94 13.45 47.28 13.8 46.57H12.72V45.67ZM11.23 48.8C11.03 49.1 10.83 49.39 10.61 49.67L10.3 48.65C11.06 47.55 11.61 46.26 11.96 44.8L12.82 45.2C12.64 45.87 12.42 46.51 12.15 47.12V54.05H11.23V48.8ZM28.5 50.33H26.05V50.83C26.31 51.09 26.6 51.33 26.91 51.56C27.41 51.23 27.84 50.85 28.2 50.43L28.88 51.02C28.51 51.38 28.08 51.71 27.6 52.01C28.18 52.36 28.83 52.66 29.55 52.92L29.07 53.75C27.91 53.27 26.9 52.62 26.05 51.81V53.09C26.05 53.68 25.75 53.98 25.15 53.98H24.07L23.88 53.12C24.22 53.16 24.54 53.18 24.84 53.18C25.04 53.18 25.14 53.07 25.14 52.86V52.08C24.33 52.64 23.38 53.14 22.3 53.59L21.93 52.74C22.57 52.51 23.17 52.26 23.73 51.98C23.3 51.69 22.86 51.46 22.4 51.28L22.86 50.61C23.34 50.8 23.78 51.04 24.18 51.32L23.75 51.97C24.25 51.72 24.71 51.46 25.14 51.18V50.33H22.72V49.56H25.14V48.98H22.06C22 51.06 21.67 52.74 21.05 54L20.34 53.37C20.85 52.27 21.12 50.73 21.15 48.75V45.42H24.91C24.81 45.24 24.71 45.07 24.61 44.91L25.6 44.75C25.7 44.95 25.79 45.17 25.89 45.42H29.32V46.27H26.05V46.84H28.5V48.21H29.42V48.98H28.5V50.33ZM22.07 48.21H25.14V47.61H22.77V46.84H25.14V46.27H22.07V48.21ZM26.05 47.61V48.21H27.6V47.61H26.05ZM27.6 48.98H26.05V49.56H27.6V48.98ZM30.57 45.55H32.84V44.79H33.79V45.55H36.21V44.79H37.16V45.55H39.43V46.43H37.16V47.11H36.21V46.43H33.79V47.13H32.84V46.43H30.57V45.55ZM34.61 52.38V53.24C33.54 53.56 32.32 53.81 30.95 54L30.83 53.11C32.27 52.93 33.53 52.68 34.61 52.38ZM32.33 46.99L33.16 47.31C32.7 48.1 32.25 48.76 31.79 49.28C32.17 49.24 32.55 49.19 32.92 49.15C33.13 48.83 33.35 48.49 33.58 48.13L34.43 48.45C33.54 49.76 32.79 50.71 32.18 51.3C32.85 51.18 33.53 51.01 34.22 50.8V51.61C33.13 51.92 32.09 52.13 31.11 52.24L30.87 51.42C31.03 51.36 31.16 51.27 31.27 51.16C31.57 50.92 31.93 50.51 32.35 49.95C31.86 50.01 31.35 50.08 30.83 50.15L30.63 49.4C30.75 49.34 30.87 49.24 30.97 49.09C31.49 48.46 31.95 47.76 32.33 46.99ZM35.98 50.08C36.52 50.72 36.94 51.27 37.23 51.75L36.54 52.24C36.23 51.72 35.81 51.15 35.29 50.51L35.98 50.08ZM35.58 47.11L36.47 47.21C36.4 47.5 36.32 47.78 36.23 48.06H39.08C39.08 50.78 39.02 52.45 38.92 53.09C38.8 53.72 38.29 54.04 37.37 54.04C37.12 54.04 36.69 54.02 36.08 54L35.87 53.16C36.39 53.19 36.85 53.21 37.23 53.21C37.68 53.21 37.95 53.03 38.03 52.67C38.1 52.3 38.14 51.05 38.16 48.91H35.88C35.55 49.57 35.13 50.15 34.63 50.67L34.09 49.97C34.82 49.19 35.32 48.23 35.58 47.11ZM44.15 50.15H42.67V49.25H45.38C45.3 49.02 45.21 48.81 45.12 48.61L46.12 48.45C46.21 48.69 46.29 48.96 46.37 49.25H49.46V50.15H45.12C45.1 50.41 45.06 50.67 45.02 50.91H48.75C48.69 52.31 48.62 53.13 48.54 53.37C48.45 53.61 48.28 53.77 48.02 53.85C47.75 53.93 47.15 53.97 46.21 53.97H46.09L45.83 53.12C46.05 53.13 46.26 53.14 46.46 53.14C46.96 53.14 47.29 53.12 47.43 53.08C47.56 53.03 47.65 52.95 47.69 52.84C47.71 52.73 47.74 52.37 47.79 51.77H44.76C44.36 52.73 43.64 53.48 42.6 54.02L42.08 53.19C43.35 52.59 44.04 51.58 44.15 50.15ZM48.02 46.39H42.33V47.42H48.02V46.39ZM42.33 48.3V49.07C42.32 51 41.88 52.66 41.02 54.04L40.32 53.41C41.02 52.29 41.37 50.84 41.38 49.07V45.5H44.67C44.59 45.27 44.49 45.05 44.39 44.85L45.42 44.69C45.52 44.93 45.61 45.2 45.7 45.5H48.95V48.3H42.33Z" fill="#1B8BFF"/>
</g>
<defs>
<linearGradient id="paint0_linear_545_915" x1="15.1071" y1="0" x2="15.1071" y2="29.7857" gradientUnits="userSpaceOnUse">
<stop stop-color="#0E9D2B"/>
<stop offset="0.690647" stop-color="#3D96D6" stop-opacity="0.413607"/>
<stop offset="1" stop-color="white" stop-opacity="0.01"/>
</linearGradient>
<clipPath id="clip0_545_915">
<rect width="24" height="24" fill="white" transform="translate(18 13)"/>
</clipPath>
</defs>
</svg>
