<svg width="60" height="46" viewBox="0 0 60 46" fill="none" xmlns="http://www.w3.org/2000/svg">
<g id="4" clip-path="url(#clip0_545_1490)">
<path id="&#230;&#136;&#145;&#231;&#154;&#132;" d="M25.11 35.48V36.21C24.53 36.4 23.93 36.58 23.29 36.75V39C23.29 39.58 22.98 39.87 22.37 39.87H21.26L21.11 39.18C21.46 39.21 21.8 39.23 22.13 39.23C22.41 39.23 22.55 39.09 22.55 38.82V36.92C21.91 37.06 21.26 37.19 20.58 37.3L20.48 36.57C21.21 36.45 21.9 36.33 22.55 36.19V34.22H20.49V33.53H22.55V32.19C22.02 32.3 21.47 32.39 20.9 32.47L20.75 31.78C22.17 31.62 23.43 31.33 24.53 30.9L24.77 31.58C24.31 31.74 23.81 31.89 23.29 32.03V33.53H25.69C25.63 32.72 25.6 31.83 25.6 30.85H26.32C26.33 31.86 26.36 32.75 26.42 33.53H29.51V34.22H26.48C26.55 34.94 26.64 35.54 26.76 36.03C26.82 36.29 26.89 36.52 26.96 36.74C27.44 36.16 27.87 35.5 28.23 34.76L28.85 35.09C28.39 36.03 27.85 36.83 27.22 37.5C27.36 37.84 27.5 38.13 27.66 38.36C27.98 38.84 28.24 39.09 28.43 39.09C28.63 39.08 28.8 38.52 28.96 37.4L29.59 37.73C29.35 39.15 29 39.86 28.54 39.86C28.13 39.86 27.7 39.56 27.24 38.96C27.04 38.69 26.85 38.37 26.69 38.01C25.97 38.65 25.15 39.15 24.24 39.51L23.85 38.89C24.83 38.53 25.68 38 26.41 37.31C26.29 36.97 26.18 36.6 26.08 36.21C25.94 35.64 25.83 34.98 25.75 34.22H23.29V36.02C23.94 35.85 24.55 35.67 25.11 35.48ZM27.42 30.96C28.14 31.44 28.75 31.91 29.25 32.39L28.73 32.91C28.29 32.45 27.7 31.95 26.94 31.42L27.42 30.96ZM34.04 32.56V39.38H33.34V38.81H31.52V39.67H30.82V32.56H31.75C31.95 32 32.09 31.42 32.18 30.82L32.9 30.92C32.78 31.51 32.63 32.06 32.43 32.56H34.04ZM31.52 38.14H33.34V35.95H31.52V38.14ZM31.52 35.3H33.34V33.24H31.52V35.3ZM35.78 34.88C36.5 35.71 37.04 36.44 37.42 37.06L36.85 37.46C36.44 36.8 35.89 36.06 35.2 35.24L35.78 34.88ZM39.21 32.57C39.21 35.89 39.16 37.95 39.06 38.73C38.96 39.49 38.5 39.88 37.66 39.88C37.46 39.88 37.12 39.86 36.64 39.84L36.47 39.18C36.89 39.2 37.25 39.21 37.56 39.21C38.03 39.21 38.3 38.95 38.38 38.44C38.44 37.88 38.48 36.15 38.5 33.27H35.75C35.47 33.9 35.14 34.47 34.75 34.98L34.32 34.41C35.02 33.43 35.49 32.23 35.75 30.81L36.46 30.9C36.34 31.49 36.2 32.05 36.02 32.57H39.21Z" fill="#787878"/>
<g id="&#229;&#174;&#185;&#229;&#153;&#168;" clip-path="url(#clip1_545_1490)">
<mask id="mask0_545_1490" style="mask-type:luminance" maskUnits="userSpaceOnUse" x="20" y="6" width="20" height="20">
<rect id="&#229;&#174;&#185;&#229;&#153;&#168;_2" x="20" y="6" width="20" height="20" fill="white"/>
</mask>
<g mask="url(#mask0_545_1490)">
<path id="&#232;&#183;&#175;&#229;&#190;&#132;" fill-rule="evenodd" clip-rule="evenodd" d="M25.4935 9.94092C26.2038 8.30392 27.6868 7.33325 29.9888 7.33325C32.2912 7.33325 33.8002 8.25425 34.5465 9.82925C35.0482 10.8873 35.1472 12.1099 35.0058 13.1633C34.8492 14.3239 34.3748 15.4609 33.6292 16.3103L33.5735 16.3713L37.1878 19.3873C37.4703 19.623 37.6428 19.965 37.6645 20.3323L37.6668 20.4109V23.3333C37.6668 24.0696 37.0699 24.6666 36.3335 24.6666H23.6668C22.9304 24.6666 22.3335 24.0696 22.3335 23.3333V20.4099C22.3337 20.0159 22.5082 19.6421 22.8102 19.3889L26.4655 16.3213L26.4242 16.2729C25.7072 15.4176 25.2065 14.2403 25.0792 13.2543L25.0658 13.1416C24.9602 12.0969 25.0392 10.9883 25.4935 9.94092ZM33.3418 10.3999C32.8198 9.29859 31.7842 8.66659 29.9888 8.66659C28.2168 8.66659 27.2152 9.32259 26.7168 10.4716C26.3718 11.2663 26.3078 12.1693 26.3928 13.0069C26.4872 13.9386 27.1052 15.2349 27.8695 15.8343C28.2028 16.0955 28.2112 16.5973 27.8868 16.8696L23.6668 20.4103V23.3333H36.3335V20.4113L32.1382 16.9099C31.8092 16.6355 31.8208 16.1265 32.1618 15.8673C32.9782 15.2466 33.5298 14.1333 33.6842 12.9856C33.7945 12.1653 33.7152 11.1883 33.3418 10.3999Z" fill="#787878"/>
</g>
</g>
</g>
<defs>
<clipPath id="clip0_545_1490">
<rect width="60" height="46" fill="white"/>
</clipPath>
<clipPath id="clip1_545_1490">
<rect width="20" height="20" fill="white" transform="translate(20 6)"/>
</clipPath>
</defs>
</svg>
