<?xml version="1.0" encoding="UTF-8"?>
<svg width="26px" height="26px" viewBox="0 0 26 26" version="1.1" xmlns="http://www.w3.org/2000/svg" xmlns:xlink="http://www.w3.org/1999/xlink">
    <title>我的</title>
    <defs>
        <linearGradient x1="50%" y1="0%" x2="50%" y2="100%" id="linearGradient-1">
            <stop stop-color="#5599FF" offset="0%"></stop>
            <stop stop-color="#1B76FF" offset="100%"></stop>
        </linearGradient>
    </defs>
    <g id="页面-1" stroke="none" stroke-width="1" fill="none" fill-rule="evenodd">
        <g id="我的" transform="translate(-325.000000, -794.000000)" fill-rule="nonzero">
            <g id="编组-21" transform="translate(325.000000, 794.000000)">
                <g id="我的，我" transform="translate(3.000000, 3.000000)">
                    <rect id="矩形" fill="#000000" opacity="0" x="0" y="0" width="20" height="20"></rect>
                    <path d="M12.4,10.2 C15.9348,10.2 18.8,13.0652 18.8,16.6 L18.8,17 C18.8,17.8836556 18.0836556,18.6 17.2,18.6 L3.6,18.6 C2.7163444,18.6 2,17.8836556 2,17 L2,16.6 C2,13.0652 4.8652,10.2 8.4,10.2 L12.4,10.2 L12.4,10.2 Z M10.4,1 C12.6092,1 14.4,2.7908 14.4,5 C14.4,7.2092 12.6092,9 10.4,9 C8.1908,9 6.4,7.2092 6.4,5 C6.4,2.7908 8.1908,1 10.4,1 Z" id="形状" fill="url(#linearGradient-1)"></path>
                </g>
            </g>
        </g>
    </g>
</svg>