<svg width="60" height="46" viewBox="0 0 60 46" fill="none" xmlns="http://www.w3.org/2000/svg">
<g id="2" clip-path="url(#clip0_517_8625)">
<path id="&#231;&#167;&#145;&#230;&#153;&#174;" d="M18.93 35.03H17.27V35.81H19.12V36.38H17.27V37.12H19.43V37.72H17.27V38.74H16.58V37.72H14.91V37.12H16.58V36.38H15.22V35.81H16.58V35.03H15.32V34.45H16.58V33.64H14.91V33.05H16.58V32.24H15.32V31.66H16.58V30.89H17.27V31.66H18.93V33.05H19.57V33.64H18.93V35.03ZM17.27 32.24V33.05H18.29V32.24H17.27ZM17.27 33.64V34.45H18.29V33.64H17.27ZM12.75 31.78H14.73V32.37C14.32 33.23 13.93 33.95 13.55 34.53H14.79V34.94C14.76 36.16 14.56 37.19 14.19 38.03C14.5 38.37 14.85 38.63 15.24 38.8C15.77 39.03 16.6 39.16 17.74 39.19C18.52 39.19 19.14 39.18 19.6 39.16L19.47 39.83H18.19C16.46 39.82 15.28 39.63 14.66 39.26C14.36 39.1 14.1 38.89 13.86 38.65C13.52 39.18 13.11 39.62 12.62 39.96L12.27 39.35C12.73 39.02 13.11 38.6 13.41 38.1C13 37.52 12.68 36.79 12.44 35.91L13.02 35.69C13.18 36.36 13.42 36.94 13.73 37.43C13.97 36.77 14.12 36.01 14.16 35.14H12.71V34.62C13.18 33.96 13.6 33.24 13.97 32.46H12.75V31.78ZM11.34 34.45C11.1 34.84 10.85 35.21 10.58 35.56L10.35 34.8C11.15 33.64 11.72 32.32 12.08 30.84L12.73 31.14C12.54 31.84 12.31 32.49 12.04 33.11V40.01H11.34V34.45ZM28.42 36.26H25.94V36.81C26.24 37.12 26.55 37.4 26.89 37.66C27.43 37.32 27.9 36.93 28.28 36.49L28.8 36.94C28.4 37.34 27.93 37.7 27.4 38.02C28.03 38.43 28.73 38.78 29.51 39.07L29.15 39.7C27.91 39.18 26.84 38.47 25.94 37.57V39.18C25.94 39.69 25.68 39.95 25.17 39.95H24.06L23.92 39.3C24.28 39.33 24.61 39.35 24.93 39.35C25.14 39.35 25.25 39.23 25.25 39.01V37.86C24.39 38.48 23.39 39.04 22.24 39.54L21.96 38.89C23.22 38.41 24.32 37.84 25.25 37.16V36.26H22.72V35.67H25.25V34.89H21.96C21.91 37 21.56 38.69 20.91 39.97L20.37 39.49C20.93 38.36 21.23 36.78 21.26 34.75V31.53H25.08C24.96 31.29 24.84 31.08 24.72 30.89L25.46 30.77C25.58 30.99 25.7 31.25 25.81 31.53H29.29V32.17H25.94V32.91H28.42V34.29H29.4V34.89H28.42V36.26ZM21.96 34.29H25.25V33.5H22.76V32.91H25.25V32.17H21.96V34.29ZM25.94 33.5V34.29H27.73V33.5H25.94ZM27.73 34.89H25.94V35.67H27.73V34.89ZM22.79 36.68C23.29 36.88 23.74 37.12 24.15 37.42L23.81 37.93C23.37 37.62 22.91 37.37 22.44 37.19L22.79 36.68ZM39.5 36.25L39.61 36.95L38.6 37.11V39.97H37.87V37.23L34.75 37.74L34.65 37.04L37.87 36.52V30.87H38.6V36.4L39.5 36.25ZM35.6 31.39C36.32 31.9 36.92 32.41 37.41 32.93L36.92 33.43C36.48 32.94 35.87 32.42 35.09 31.88L35.6 31.39ZM35.3 33.69C36.03 34.23 36.65 34.76 37.15 35.3L36.64 35.81C36.19 35.3 35.57 34.76 34.79 34.18L35.3 33.69ZM30.63 33.53H32.27V32.05C31.79 32.12 31.3 32.18 30.78 32.23L30.64 31.55C31.94 31.45 33.1 31.24 34.1 30.94L34.35 31.62C33.92 31.74 33.47 31.84 32.99 31.93V33.53H34.37V34.22H32.99V34.71C33.55 35.16 34.13 35.67 34.71 36.23L34.3 36.84C33.78 36.23 33.35 35.75 32.99 35.4V39.97H32.27V35.3C31.87 36.28 31.34 37.17 30.66 37.97L30.35 37.17C31.2 36.31 31.81 35.32 32.19 34.22H30.63V33.53ZM43.69 32.58H40.98V31.91H43.11C42.95 31.56 42.78 31.24 42.6 30.95L43.35 30.83C43.53 31.15 43.71 31.51 43.87 31.91H45.97C46.21 31.54 46.43 31.16 46.62 30.76L47.31 31C47.14 31.34 46.96 31.64 46.76 31.91H49.02V32.58H46.3V34.54H49.4V35.22H40.6V34.54H43.69V32.58ZM45.61 32.58H44.38V34.54H45.61V32.58ZM47.94 32.84L48.52 33.11C48.3 33.57 48.01 34.01 47.66 34.43L47.09 34.14C47.45 33.7 47.73 33.27 47.94 32.84ZM42.24 32.86C42.5 33.27 42.72 33.71 42.91 34.17L42.3 34.44C42.1 33.92 41.87 33.47 41.61 33.07L42.24 32.86ZM48.05 35.95V39.99H47.36V39.52H42.62V39.99H41.93V35.95H48.05ZM42.62 38.91H47.36V38.04H42.62V38.91ZM42.62 37.46H47.36V36.55H42.62V37.46Z" fill="#787878"/>
<g id="&#229;&#174;&#185;&#229;&#153;&#168;" clip-path="url(#clip1_517_8625)">
<mask id="mask0_517_8625" style="mask-type:luminance" maskUnits="userSpaceOnUse" x="20" y="5" width="20" height="20">
<rect id="&#229;&#174;&#185;&#229;&#153;&#168;_2" x="20" y="5" width="20" height="20" fill="white"/>
</mask>
<g mask="url(#mask0_517_8625)">
<path id="&#232;&#183;&#175;&#229;&#190;&#132;" fill-rule="evenodd" clip-rule="evenodd" d="M39 11.2341C39 10.7613 38.7086 10.3524 38.2577 10.1927L30.6068 8.09978C30.2134 7.96674 29.7864 7.96674 29.393 8.09978L21.7863 10.1789L21.7421 10.1929C21.2912 10.3526 21 10.7613 21 11.2341C21 11.7071 21.2914 12.116 21.7421 12.2755L29.3932 14.3684C29.5884 14.4345 29.7935 14.4683 30.0001 14.4683C30.2054 14.4683 30.4109 14.4349 30.607 14.3684L37.4986 12.4849V16.3447C37.4986 16.6842 37.7774 16.9594 38.1213 16.9594C38.4652 16.9594 38.744 16.6842 38.744 16.3447V11.9371C38.9051 11.7445 39 11.5004 39 11.2341ZM30.2545 13.1893L30.2104 13.2031C30.0743 13.2513 29.9255 13.2513 29.7894 13.2031L22.5929 11.2343L29.7452 9.27915L29.7892 9.26536C29.9253 9.21753 30.074 9.21753 30.2102 9.26536L37.4067 11.2341L30.2545 13.1893ZM35.3809 14.7486C35.3809 14.4091 35.6597 14.1339 36.0036 14.1339C36.3475 14.1339 36.6262 14.4091 36.626 14.7486V19.8519C36.626 20.6777 36.0628 21.4088 35.2565 21.6295L30.6068 22.9001C30.4105 22.9669 30.205 23 29.9997 23C29.7944 23 29.5888 22.9669 29.3925 22.9001L24.6953 21.6162C23.886 21.3948 23.3255 20.6677 23.3255 19.8385V14.7486C23.3255 14.4091 23.6043 14.1339 23.9482 14.1339C24.2921 14.1339 24.5709 14.4091 24.5709 14.7486V19.8388C24.5709 20.1151 24.7577 20.3576 25.0275 20.4315L29.7896 21.7348C29.9255 21.7828 30.0741 21.7828 30.2099 21.7348L30.2545 21.7207L34.9243 20.4444C35.1941 20.3707 35.3809 20.1282 35.3809 19.8519V14.7486Z" fill="#787878"/>
</g>
</g>
</g>
<defs>
<clipPath id="clip0_517_8625">
<rect width="60" height="46" fill="white"/>
</clipPath>
<clipPath id="clip1_517_8625">
<rect width="20" height="20" fill="white" transform="translate(20 5)"/>
</clipPath>
</defs>
</svg>
