<svg width="60" height="46" viewBox="0 0 60 46" fill="none" xmlns="http://www.w3.org/2000/svg">
<g id="3" clip-path="url(#clip0_517_8644)">
<g id="&#229;&#174;&#185;&#229;&#153;&#168;" clip-path="url(#clip1_517_8644)">
<mask id="mask0_517_8644" style="mask-type:luminance" maskUnits="userSpaceOnUse" x="20" y="6" width="20" height="20">
<rect id="&#229;&#174;&#185;&#229;&#153;&#168;_2" x="20" y="6" width="20" height="20" fill="white"/>
</mask>
<g mask="url(#mask0_517_8644)">
<path id="Subtract" fill-rule="evenodd" clip-rule="evenodd" d="M38.1316 14.1186C38.1834 14.3447 38.2109 14.5801 38.2109 14.8219C38.2109 14.8278 38.2108 14.8337 38.2107 14.8396C38.2106 14.8455 38.2105 14.8515 38.2105 14.8574L38.2109 14.8596H38.2102C38.19 16.5725 36.7955 17.9549 35.0777 17.9549C34.0609 17.9549 33.1572 17.4703 32.585 16.7195C32.0127 17.4703 31.109 17.9549 30.0922 17.9549C29.083 17.9549 28.1855 17.4775 27.6125 16.7365C27.0396 17.4775 26.142 17.9549 25.1328 17.9549C23.4152 17.9549 22.0205 16.5725 22.0004 14.8596H22L22.0004 14.8572C22.0004 14.8514 22.0003 14.8455 22.0002 14.8396C22.0001 14.8336 22 14.8277 22 14.8219C21.9998 14.5853 22.0264 14.3494 22.0791 14.1188L22.0978 14.0373C22.3475 12.9502 22.597 11.8633 22.815 10.7695L23.1666 9.00566C23.2832 8.42109 23.7965 8 24.3926 8H35.8184C36.4145 8 36.9277 8.42109 37.0441 9.00547L37.3957 10.7693C37.6142 11.8658 37.8645 12.9555 38.1148 14.0451L38.1316 14.1186ZM36.3471 16.2129C36.7357 15.8572 36.9543 15.368 36.9605 14.8449L36.9611 14.8133C36.9606 14.6737 36.9447 14.5345 36.9135 14.3984L36.8943 14.3154C36.6471 13.2385 36.3914 12.1248 36.1699 11.0139L35.9186 9.75293C35.8604 9.46055 35.6037 9.25 35.3057 9.25H24.9055C24.6074 9.25 24.3508 9.46055 24.2926 9.75293L24.0412 11.0139C23.8198 12.1246 23.5643 13.2376 23.3171 14.3142L23.3168 14.3154L23.2977 14.3984C23.2666 14.5338 23.2506 14.6736 23.25 14.8145L23.2504 14.8379V14.843V14.8447C23.2566 15.3654 23.473 15.8523 23.8582 16.2076C24.2072 16.5295 24.6682 16.7072 25.1428 16.7049C25.7264 16.7021 26.2658 16.4354 26.624 15.9721L27.1184 15.3326C27.3686 15.009 27.857 15.009 28.1072 15.3326L28.6016 15.9721C28.9617 16.4379 29.5051 16.7051 30.0924 16.7051C30.6848 16.7051 31.2311 16.4342 31.5912 15.9619L32.0883 15.31C32.3383 14.9818 32.832 14.9818 33.0822 15.31L33.5793 15.9619C33.935 16.4283 34.4725 16.6984 35.0564 16.7049C35.5324 16.7102 35.9959 16.5344 36.3471 16.2129Z" fill="#787878"/>
<path id="&#232;&#183;&#175;&#229;&#190;&#132;" d="M35.6914 16.7049V22.3359C35.6914 22.6811 35.4115 22.9609 35.0664 22.9609H25.1445C24.7994 22.9609 24.5195 22.6811 24.5195 22.3359V16.7049H23.2695V22.9609C23.2695 23.6514 23.8291 24.2109 24.5195 24.2109H35.6914C36.3818 24.2109 36.9414 23.6514 36.9414 22.9609V16.7049H35.6914Z" fill="#787878"/>
<path id="&#232;&#183;&#175;&#229;&#190;&#132;_2" d="M30.1055 10.1152C29.7604 10.1152 29.4805 10.3951 29.4805 10.7402V11.834H28.3867C28.0416 11.834 27.7617 12.1139 27.7617 12.459C27.7617 12.8041 28.0416 13.084 28.3867 13.084H29.4805V14.1777C29.4805 14.5229 29.7604 14.8027 30.1055 14.8027C30.4506 14.8027 30.7305 14.5229 30.7305 14.1777V13.084H31.8242C32.1693 13.084 32.4492 12.8041 32.4492 12.459C32.4492 12.1139 32.1693 11.834 31.8242 11.834H30.7305V10.7402C30.7305 10.3951 30.4506 10.1152 30.1055 10.1152Z" fill="#787878"/>
</g>
</g>
<path id="&#231;&#166;&#143;&#229;&#136;&#169;" d="M18.93 35.03H17.27V35.81H19.12V36.38H17.27V37.12H19.43V37.72H17.27V38.74H16.58V37.72H14.91V37.12H16.58V36.38H15.22V35.81H16.58V35.03H15.32V34.45H16.58V33.64H14.91V33.05H16.58V32.24H15.32V31.66H16.58V30.89H17.27V31.66H18.93V33.05H19.57V33.64H18.93V35.03ZM17.27 32.24V33.05H18.29V32.24H17.27ZM17.27 33.64V34.45H18.29V33.64H17.27ZM12.75 31.78H14.73V32.37C14.32 33.23 13.93 33.95 13.55 34.53H14.79V34.94C14.76 36.16 14.56 37.19 14.19 38.03C14.5 38.37 14.85 38.63 15.24 38.8C15.77 39.03 16.6 39.16 17.74 39.19C18.52 39.19 19.14 39.18 19.6 39.16L19.47 39.83H18.19C16.46 39.82 15.28 39.63 14.66 39.26C14.36 39.1 14.1 38.89 13.86 38.65C13.52 39.18 13.11 39.62 12.62 39.96L12.27 39.35C12.73 39.02 13.11 38.6 13.41 38.1C13 37.52 12.68 36.79 12.44 35.91L13.02 35.69C13.18 36.36 13.42 36.94 13.73 37.43C13.97 36.77 14.12 36.01 14.16 35.14H12.71V34.62C13.18 33.96 13.6 33.24 13.97 32.46H12.75V31.78ZM11.34 34.45C11.1 34.84 10.85 35.21 10.58 35.56L10.35 34.8C11.15 33.64 11.72 32.32 12.08 30.84L12.73 31.14C12.54 31.84 12.31 32.49 12.04 33.11V40.01H11.34V34.45ZM28.42 36.26H25.94V36.81C26.24 37.12 26.55 37.4 26.89 37.66C27.43 37.32 27.9 36.93 28.28 36.49L28.8 36.94C28.4 37.34 27.93 37.7 27.4 38.02C28.03 38.43 28.73 38.78 29.51 39.07L29.15 39.7C27.91 39.18 26.84 38.47 25.94 37.57V39.18C25.94 39.69 25.68 39.95 25.17 39.95H24.06L23.92 39.3C24.28 39.33 24.61 39.35 24.93 39.35C25.14 39.35 25.25 39.23 25.25 39.01V37.86C24.39 38.48 23.39 39.04 22.24 39.54L21.96 38.89C23.22 38.41 24.32 37.84 25.25 37.16V36.26H22.72V35.67H25.25V34.89H21.96C21.91 37 21.56 38.69 20.91 39.97L20.37 39.49C20.93 38.36 21.23 36.78 21.26 34.75V31.53H25.08C24.96 31.29 24.84 31.08 24.72 30.89L25.46 30.77C25.58 30.99 25.7 31.25 25.81 31.53H29.29V32.17H25.94V32.91H28.42V34.29H29.4V34.89H28.42V36.26ZM21.96 34.29H25.25V33.5H22.76V32.91H25.25V32.17H21.96V34.29ZM25.94 33.5V34.29H27.73V33.5H25.94ZM27.73 34.89H25.94V35.67H27.73V34.89ZM22.79 36.68C23.29 36.88 23.74 37.12 24.15 37.42L23.81 37.93C23.37 37.62 22.91 37.37 22.44 37.19L22.79 36.68ZM30.6 31.66H32.97V30.82H33.69V31.66H36.31V30.82H37.03V31.66H39.4V32.32H37.03V33.11H36.31V32.32H33.69V33.12H32.97V32.32H30.6V31.66ZM34.54 38.52V39.17C33.5 39.49 32.3 39.74 30.96 39.93L30.87 39.25C32.27 39.07 33.5 38.82 34.54 38.52ZM32.44 33.03L33.07 33.27C32.58 34.15 32.09 34.86 31.59 35.41C32.06 35.36 32.54 35.3 33.02 35.23C33.25 34.89 33.49 34.54 33.73 34.16L34.38 34.4C33.41 35.84 32.6 36.86 31.95 37.47C32.69 37.35 33.44 37.17 34.19 36.95V37.57C33.13 37.86 32.11 38.06 31.13 38.18L30.94 37.55C31.06 37.5 31.17 37.43 31.26 37.34C31.63 37.03 32.07 36.53 32.58 35.85C32 35.93 31.42 36 30.84 36.08L30.69 35.5C30.79 35.46 30.88 35.38 30.96 35.26C31.52 34.61 32.02 33.87 32.44 33.03ZM35.89 36.07C36.47 36.73 36.92 37.31 37.24 37.8L36.71 38.17C36.38 37.64 35.93 37.05 35.36 36.4L35.89 36.07ZM35.66 33.14L36.34 33.21C36.26 33.53 36.17 33.85 36.07 34.15H39.02C39.02 36.81 38.95 38.44 38.83 39.06C38.71 39.68 38.19 40 37.26 40C37.03 40 36.63 39.99 36.07 39.97L35.92 39.33C36.39 39.35 36.8 39.37 37.15 39.37C37.71 39.37 38.04 39.17 38.14 38.79C38.25 38.37 38.31 37.04 38.32 34.8H35.79C35.46 35.48 35.04 36.08 34.53 36.6L34.12 36.07C34.88 35.27 35.39 34.29 35.66 33.14ZM44.27 36.04H42.7V35.36H45.54C45.44 35.08 45.34 34.82 45.23 34.59L45.99 34.47C46.09 34.74 46.19 35.04 46.29 35.36H49.43V36.04H45.01C44.99 36.38 44.95 36.7 44.88 36.99H48.64C48.6 38.33 48.53 39.12 48.44 39.36C48.36 39.59 48.19 39.74 47.93 39.82C47.67 39.9 47.12 39.94 46.28 39.94H46.08L45.89 39.29C46.09 39.3 46.28 39.31 46.46 39.31C47 39.31 47.35 39.28 47.51 39.23C47.66 39.17 47.76 39.07 47.8 38.94C47.83 38.8 47.87 38.36 47.91 37.64H44.68C44.28 38.66 43.55 39.45 42.49 40.01L42.1 39.38C43.46 38.71 44.18 37.6 44.27 36.04ZM48.13 32.28H42.22V33.53H48.13V32.28ZM42.22 34.19V35.07C42.21 36.99 41.77 38.65 40.89 40.03L40.36 39.55C41.11 38.39 41.49 36.9 41.5 35.07V31.6H44.84C44.74 31.32 44.64 31.07 44.52 30.83L45.3 30.71C45.4 30.97 45.51 31.27 45.61 31.6H48.84V34.19H42.22Z" fill="#787878"/>
</g>
<defs>
<clipPath id="clip0_517_8644">
<rect width="60" height="46" fill="white"/>
</clipPath>
<clipPath id="clip1_517_8644">
<rect width="20" height="20" fill="white" transform="translate(20 6)"/>
</clipPath>
</defs>
</svg>
