<svg width="60" height="60" viewBox="0 0 60 60" fill="none" xmlns="http://www.w3.org/2000/svg">
<g id="2&#233;&#128;&#137;&#228;&#184;&#173;">
<g id="Group 2827">
<circle id="&#229;&#156;&#134;&#229;&#189;&#162; 1" cx="30" cy="30" r="30" fill="white"/>
<path id="&#229;&#156;&#134;&#229;&#189;&#162; 3" d="M59 30C59 38.0084 55.7552 45.257 50.5061 50.5061C45.257 55.7552 38.0084 59 30 59C21.9916 59 14.743 55.7552 9.4939 50.5061C4.24484 45.257 1 38.0084 1 30C1 13.9837 13.9837 1 30 1C46.0163 1 59 13.9837 59 30Z" stroke="url(#paint0_linear_545_912)" stroke-width="2"/>
</g>
<path id="&#231;&#167;&#145;&#230;&#153;&#174;" d="M19.03 49.12H17.34V49.73H19.15V50.47H17.34V51.03H19.46V51.81H17.34V52.69H16.44V51.81H14.88V51.03H16.44V50.47H15.2V49.73H16.44V49.12H15.28V48.36H16.44V47.73H14.88V46.97H16.44V46.33H15.28V45.57H16.44V44.86H17.34V45.57H19.03V46.97H19.6V47.73H19.03V49.12ZM17.34 46.33V46.97H18.19V46.33H17.34ZM17.34 47.73V48.36H18.19V47.73H17.34ZM12.72 45.67H14.81V46.45C14.43 47.23 14.07 47.88 13.72 48.42H14.87V48.95C14.84 50.13 14.65 51.14 14.3 51.98C14.59 52.26 14.91 52.48 15.25 52.63C15.77 52.85 16.58 52.98 17.67 53.02C18.36 53.02 19.01 53 19.63 52.98L19.46 53.87H18.26C16.46 53.85 15.24 53.66 14.59 53.29C14.33 53.15 14.1 52.98 13.88 52.78C13.56 53.27 13.16 53.68 12.7 54.01L12.24 53.2C12.66 52.9 13 52.53 13.28 52.08C12.88 51.5 12.57 50.78 12.33 49.94L13.1 49.65C13.23 50.22 13.43 50.73 13.7 51.17C13.89 50.59 14.01 49.94 14.05 49.22H12.62V48.54C13.06 47.94 13.45 47.28 13.8 46.57H12.72V45.67ZM11.23 48.8C11.03 49.1 10.83 49.39 10.61 49.67L10.3 48.65C11.06 47.55 11.61 46.26 11.96 44.8L12.82 45.2C12.64 45.87 12.42 46.51 12.15 47.12V54.05H11.23V48.8ZM28.5 50.33H26.05V50.83C26.31 51.09 26.6 51.33 26.91 51.56C27.41 51.23 27.84 50.85 28.2 50.43L28.88 51.02C28.51 51.38 28.08 51.71 27.6 52.01C28.18 52.36 28.83 52.66 29.55 52.92L29.07 53.75C27.91 53.27 26.9 52.62 26.05 51.81V53.09C26.05 53.68 25.75 53.98 25.15 53.98H24.07L23.88 53.12C24.22 53.16 24.54 53.18 24.84 53.18C25.04 53.18 25.14 53.07 25.14 52.86V52.08C24.33 52.64 23.38 53.14 22.3 53.59L21.93 52.74C22.57 52.51 23.17 52.26 23.73 51.98C23.3 51.69 22.86 51.46 22.4 51.28L22.86 50.61C23.34 50.8 23.78 51.04 24.18 51.32L23.75 51.97C24.25 51.72 24.71 51.46 25.14 51.18V50.33H22.72V49.56H25.14V48.98H22.06C22 51.06 21.67 52.74 21.05 54L20.34 53.37C20.85 52.27 21.12 50.73 21.15 48.75V45.42H24.91C24.81 45.24 24.71 45.07 24.61 44.91L25.6 44.75C25.7 44.95 25.79 45.17 25.89 45.42H29.32V46.27H26.05V46.84H28.5V48.21H29.42V48.98H28.5V50.33ZM22.07 48.21H25.14V47.61H22.77V46.84H25.14V46.27H22.07V48.21ZM26.05 47.61V48.21H27.6V47.61H26.05ZM27.6 48.98H26.05V49.56H27.6V48.98ZM39.5 50.14L39.65 51.06L38.71 51.21V54H37.75V51.37L34.74 51.85L34.6 50.93L37.75 50.42V44.84H38.71V50.27L39.5 50.14ZM35.71 45.35C36.39 45.83 36.97 46.32 37.44 46.8L36.79 47.46C36.37 47 35.79 46.52 35.04 46L35.71 45.35ZM35.41 47.65C36.11 48.15 36.7 48.66 37.18 49.17L36.5 49.84C36.08 49.37 35.5 48.86 34.74 48.3L35.41 47.65ZM30.6 47.42H32.16V46.17C31.71 46.23 31.25 46.29 30.79 46.33L30.61 45.44C31.9 45.34 33.05 45.14 34.07 44.84L34.4 45.73C33.99 45.84 33.56 45.94 33.12 46.02V47.42H34.4V48.33H33.12V48.72C33.65 49.12 34.19 49.58 34.74 50.1L34.21 50.91C33.78 50.38 33.42 49.95 33.12 49.63V54H32.16V49.69C31.79 50.57 31.31 51.38 30.71 52.1L30.29 51.04C31.09 50.24 31.68 49.34 32.05 48.33H30.6V47.42ZM43.58 46.69H40.95V45.8H42.95C42.81 45.5 42.65 45.22 42.49 44.98L43.49 44.82C43.65 45.11 43.81 45.44 43.97 45.8H45.89C46.11 45.46 46.31 45.1 46.48 44.73L47.39 45.05C47.25 45.32 47.09 45.57 46.93 45.8H49.05V46.69H46.41V48.42H47.69L47.02 48.07C47.36 47.66 47.63 47.25 47.83 46.83L48.59 47.19C48.39 47.61 48.12 48.02 47.8 48.42H49.43V49.31H40.57V48.42H42.17C41.97 47.93 41.76 47.5 41.52 47.12L42.35 46.85C42.59 47.25 42.81 47.67 43 48.12L42.31 48.42H43.58V46.69ZM45.5 46.69H44.49V48.42H45.5V46.69ZM48.16 49.86V54.02H47.25V53.59H42.73V54.02H41.82V49.86H48.16ZM42.73 52.8H47.25V52.11H42.73V52.8ZM42.73 51.36H47.25V50.64H42.73V51.36Z" fill="#1B8BFF"/>
<g id="&#229;&#174;&#185;&#229;&#153;&#168;">
<path id="&#232;&#183;&#175;&#229;&#190;&#132;" fill-rule="evenodd" clip-rule="evenodd" d="M40.0514 17.8017C40.6277 18.0058 41 18.5284 41 19.1325C41 19.4727 40.8788 19.7846 40.6729 20.0308V25.6627C40.6729 26.0965 40.3167 26.4481 39.8772 26.4481C39.4378 26.4481 39.0816 26.0965 39.0816 25.6627V20.7307L30.2756 23.1374C30.0251 23.2224 29.7625 23.2651 29.5001 23.2651C29.2362 23.265 28.9741 23.2219 28.7247 23.1374L18.9483 20.4632C18.3723 20.2593 18 19.7368 18 19.1325C18 18.5284 18.372 18.0061 18.9483 17.802L19.0047 17.7841L28.7244 15.1275C29.227 14.9575 29.7727 14.9575 30.2753 15.1275L40.0514 17.8017ZM29.7688 21.6483L29.8253 21.6307L38.9641 19.1325L29.7685 16.6168C29.5946 16.5557 29.4046 16.5557 29.2306 16.6168L29.1745 16.6345L20.0353 19.1327L29.2309 21.6483C29.4048 21.71 29.595 21.71 29.7688 21.6483Z" fill="#07C160"/>
<path id="&#232;&#183;&#175;&#229;&#190;&#132;_2" d="M37.1712 22.8378C36.7318 22.8378 36.3756 23.1894 36.3756 23.6232V30.1441C36.3756 30.4972 36.1369 30.807 35.7922 30.9011L29.8253 32.532L29.7682 32.55C29.5946 32.6114 29.4048 32.6114 29.2312 32.55L23.1462 30.8846C22.8015 30.7903 22.5628 30.4804 22.5628 30.1273V23.6232C22.5628 23.1894 22.2066 22.8378 21.7671 22.8378C21.3277 22.8378 20.9715 23.1894 20.9715 23.6232V30.127C20.9715 31.1865 21.6877 32.1156 22.7218 32.3984L28.7238 34.039C28.9746 34.1243 29.2372 34.1667 29.4996 34.1667C29.7619 34.1667 30.0245 34.1243 30.2753 34.039L36.2166 32.4155C37.247 32.1335 37.9666 31.1993 37.9666 30.1441V23.6232C37.9669 23.1894 37.6107 22.8378 37.1712 22.8378Z" fill="#1B8BFF"/>
</g>
</g>
<defs>
<linearGradient id="paint0_linear_545_912" x1="15.1071" y1="0" x2="15.1071" y2="29.7857" gradientUnits="userSpaceOnUse">
<stop stop-color="#0E9D2B"/>
<stop offset="0.690647" stop-color="#3D96D6" stop-opacity="0.413607"/>
<stop offset="1" stop-color="white" stop-opacity="0.01"/>
</linearGradient>
</defs>
</svg>
