<?xml version="1.0" encoding="UTF-8"?>
<svg width="26px" height="26px" viewBox="0 0 26 26" version="1.1" xmlns="http://www.w3.org/2000/svg" xmlns:xlink="http://www.w3.org/1999/xlink">
    <title>编组 30</title>
    <defs>
        <linearGradient x1="50%" y1="0%" x2="50%" y2="100%" id="linearGradient-1">
            <stop stop-color="#5599FF" offset="0%"></stop>
            <stop stop-color="#1B76FF" offset="100%"></stop>
        </linearGradient>
    </defs>
    <g id="页面-1" stroke="none" stroke-width="1" fill="none" fill-rule="evenodd">
        <g id="我的" transform="translate(-26.000000, -793.000000)" fill-rule="nonzero">
            <g id="编组-35" transform="translate(26.000000, 793.000000)">
                <g id="首页-置灰" transform="translate(4.000000, 4.000000)">
                    <rect id="矩形" fill="#000000" opacity="0" x="0" y="0" width="18" height="18"></rect>
                    <path d="M8.24250001,1.01849999 C8.6839102,0.660495557 9.31571481,0.660495557 9.757125,1.01849999 L16.78725,6.68962499 C17.315625,7.115625 17.404875,7.89712499 16.986375,8.43562499 C16.819778,8.65095836 16.5858199,8.80424582 16.321875,8.87099999 L16.256625,8.88525 L16.257,15.24 C16.257,16.283625 15.475125,17.146875 14.45475,17.24175 L14.3715,17.248125 L14.2845,17.2499967 L3.71550001,17.2499967 C2.66362501,17.2499967 1.79850001,16.409625 1.744875,15.3285 L1.74299999,15.24 L1.742625,8.88525 L1.69950001,8.87662499 C1.17750001,8.75624999 0.782625006,8.29499999 0.751874994,7.73474999 L0.750000006,7.66425001 C0.750000006,7.284375 0.92025,6.9255 1.21275,6.68925 L8.24250001,1.01849999 Z" id="形状" fill="url(#linearGradient-1)"></path>
                    <path d="M11.491875,11.824125 C11.6925605,12.0612626 11.6630113,12.4161881 11.425875,12.616875 C10.73775,13.19925 9.98625001,13.5 9.18750001,13.5 C8.38875001,13.5 7.63725001,13.19925 6.94875001,12.616875 C6.79534908,12.4869196 6.72293114,12.2849975 6.75877533,12.0871708 C6.79461951,11.889344 6.93328023,11.7256672 7.12252533,11.6577957 C7.31177043,11.5899243 7.52284908,11.6281696 7.67624999,11.758125 C8.168625,12.1755 8.667,12.375 9.18750001,12.375 C9.707625,12.375 10.206,12.1755 10.69875,11.758125 C10.8126483,11.6616353 10.9602295,11.6143758 11.1089906,11.626755 C11.2577517,11.6391342 11.3954916,11.7101366 11.491875,11.824125 L11.491875,11.824125 Z" id="路径" fill="#FFFFFF"></path>
                </g>
            </g>
        </g>
    </g>
</svg>