<?xml version="1.0" encoding="UTF-8"?>
<svg id="_图层_2" data-name="图层 2" xmlns="http://www.w3.org/2000/svg" xmlns:xlink="http://www.w3.org/1999/xlink" viewBox="0 0 79 79">
  <defs>
    <style>
      .cls-1 {
        fill: url(#_未命名的渐变_171);
      }

      .cls-2 {
        fill: #0880ff;
      }

      .cls-3 {
        fill: url(#_未命名的渐变_6);
      }
    </style>
    <linearGradient id="_未命名的渐变_6" data-name="未命名的渐变 6" x1="53.54" y1="65.57" x2="24.96" y2="43.93" gradientUnits="userSpaceOnUse">
      <stop offset="0" stop-color="#084cf4"/>
      <stop offset="1" stop-color="#0880ff"/>
    </linearGradient>
    <linearGradient id="_未命名的渐变_171" data-name="未命名的渐变 171" x1="58.67" y1="47.38" x2="46.92" y2="19.18" gradientUnits="userSpaceOnUse">
      <stop offset="0" stop-color="#08c851"/>
      <stop offset="1" stop-color="#0e9e2b"/>
    </linearGradient>
  </defs>
  <g id="_图层_1-2" data-name="图层 1">
    <g>
      <g>
        <path class="cls-3" d="M63.38,47.1h0c-.86,.26-1.77,.41-2.71,.41h-7.34c-3.02-.02-5.47,2.43-5.47,5.45v6c-.01,4.92-3.79,9.16-8.7,9.41-5.25,.26-9.61-3.94-9.61-9.14v-4.15h13.38v-2.7c0-2.69-2.18-4.86-4.86-4.86H17.83c-5.2,0-9.4-4.36-9.14-9.61,.24-4.92,4.48-8.69,9.41-8.69h9.42c.65,0,1.18,.53,1.18,1.18v3.37c0,.65-.53,1.18-1.18,1.18h-8.84c-1.75,0-3.3,1.25-3.52,2.98-.27,2.09,1.36,3.89,3.4,3.89h9.9c4.4,0,7.97-3.57,7.97-7.97v-4.21c0-4.41-3.57-7.98-7.98-7.98h-11.74C7.52,21.65,0,29.17,0,38.36H0c0,9.19,7.52,16.71,16.71,16.71h5.26v5.27c0,9.19,7.52,16.71,16.71,16.71h0c9.19,0,16.71-7.52,16.71-16.71v-5.28s-.06-5.76,7.98-7.96Z"/>
        <path class="cls-1" d="M61.78,21.65h-6.38v-4.94C55.4,7.52,47.88,0,38.69,0S21.98,7.52,21.98,16.71v2.53h7.56v-1.14c0-4.92,3.77-9.16,8.69-9.41,5.25-.26,9.61,3.94,9.61,9.14v5.92c0,3.01,2.44,5.45,5.44,5.45h7.12c4.92,0,9.16,3.78,9.41,8.7,.21,4.3-2.56,8-6.43,9.2h0c-8.04,2.21-7.98,7.96-7.98,7.96h6.38c9.19,.01,16.71-7.51,16.71-16.7h0c0-9.19-7.52-16.71-16.71-16.71Z"/>
      </g>
	 </g>
  </g>
</svg>