<svg width="36" height="36" viewBox="0 0 36 36" fill="none" xmlns="http://www.w3.org/2000/svg">
<g id="&#231;&#187;&#132;" clip-path="url(#clip0_27_1292)">
<circle id="&#229;&#156;&#134;&#229;&#189;&#162; 17" cx="18" cy="18" r="18" fill="url(#paint0_linear_27_1292)"/>
<g id="&#231;&#187;&#132; 27">
<path id="&#232;&#183;&#175;&#229;&#190;&#132;" d="M24.228 20.2492C24.0073 20.3169 23.7715 20.357 23.5296 20.357H21.634C20.854 20.3508 20.2221 20.9943 20.2221 21.7887V23.3651C20.2221 24.6582 19.2456 25.7728 17.9788 25.8374C16.6244 25.9052 15.4997 24.8029 15.4997 23.4359V22.3459H18.9493V21.6378C18.9493 20.9327 18.387 20.36 17.6947 20.36H12.4765C11.1341 20.36 10.0518 19.2147 10.1183 17.8353C10.1818 16.5453 11.2762 15.5539 12.546 15.5539H14.9767C15.146 15.5539 15.2821 15.6924 15.2821 15.8648V16.7516C15.2821 16.924 15.146 17.0625 14.9767 17.0625H12.6941C12.2437 17.0625 11.8416 17.392 11.7841 17.8446C11.7146 18.3957 12.1348 18.8668 12.6639 18.8668H15.2186C16.3553 18.8668 17.2744 17.9277 17.2744 16.7731V15.6678C17.2744 14.5101 16.3523 13.571 15.2156 13.571H12.1862C9.81595 13.571 7.875 15.5477 7.875 17.9616C7.875 20.3754 9.81595 22.3521 12.1862 22.3521H13.5437V23.7345C13.5437 26.1484 15.4846 28.1251 17.8549 28.1251C20.2251 28.1251 22.1661 26.1484 22.1661 23.7345V22.349C22.1661 22.349 22.151 20.8373 24.225 20.2584L24.228 20.2492Z" fill="white"/>
<path id="&#232;&#183;&#175;&#229;&#190;&#132;_2" d="M23.8168 13.5618H22.1691V12.2655C22.1691 9.85166 20.2281 7.875 17.8578 7.875C15.4876 7.875 13.5466 9.85166 13.5466 12.2655V12.9306H15.4967V12.6288C15.4967 11.3357 16.4702 10.2211 17.7369 10.1565C19.0913 10.0887 20.216 11.191 20.216 12.558V14.1129C20.216 14.9042 20.8449 15.5446 21.6188 15.5446H23.454C24.7237 15.5446 25.8182 16.5391 25.8817 17.8291C25.9361 18.9591 25.2196 19.9289 24.2249 20.2461C22.1509 20.8249 22.166 22.3397 22.166 22.3397H23.8137C26.184 22.3397 28.1249 20.3661 28.1249 17.9523C28.1249 15.5384 26.184 13.5618 23.8137 13.5618H23.8168Z" fill="white"/>
</g>
</g>
<defs>
<linearGradient id="paint0_linear_27_1292" x1="-9.16481" y1="24.6813" x2="24.9286" y2="47.7995" gradientUnits="userSpaceOnUse">
<stop stop-color="#1B8BFF"/>
<stop offset="1" stop-color="#7EBEFF"/>
</linearGradient>
<clipPath id="clip0_27_1292">
<rect width="36" height="36" fill="white"/>
</clipPath>
</defs>
</svg>
