<?xml version="1.0" encoding="UTF-8"?>
<svg width="54px" height="54px" viewBox="0 0 54 54" version="1.1" xmlns="http://www.w3.org/2000/svg" xmlns:xlink="http://www.w3.org/1999/xlink">
    <title>编组</title>
    <defs>
        <linearGradient x1="50%" y1="0.270256519%" x2="91.9846692%" y2="99.7297435%" id="linearGradient-1">
            <stop stop-color="#1B8BFF" offset="0%"></stop>
            <stop stop-color="#1B63FF" offset="100%"></stop>
        </linearGradient>
    </defs>
    <g id="页面-1" stroke="none" stroke-width="1" fill="none" fill-rule="evenodd">
        <g id="服务类型" transform="translate(-30.000000, -229.000000)">
            <g id="编组" transform="translate(30.000000, 229.000000)">
                <rect id="矩形" fill="#FFFFFF" x="0" y="0" width="54" height="54" rx="8"></rect>
                <g id="医生管理" transform="translate(10.000000, 9.000000)" fill-rule="nonzero">
                    <rect id="矩形" fill="#000000" opacity="0" x="0" y="0" width="34" height="34"></rect>
                    <path d="M15.1904297,6.71367187 C14.8484375,6.71367187 14.5728516,6.94609375 14.5728516,7.23496094 C14.5728516,7.52050781 14.8517578,7.75625 15.1904297,7.75625 L16.1201172,7.75625 L16.1201172,8.18789062 C16.1201172,8.27421875 16.15,8.35058594 16.1931641,8.4203125 C16.2363281,8.62285156 16.4388672,8.77890625 16.6912109,8.77890625 C16.8638672,8.77890625 17.0099609,8.70585937 17.1029297,8.59628906 C17.2556641,8.5 17.3585937,8.35722656 17.3585937,8.18789062 L17.3585937,7.75625 L18.0791016,7.75625 C18.4210937,7.75625 18.7,7.52382812 18.7,7.23496094 C18.7,6.94941406 18.4210937,6.71367187 18.0791016,6.71367187 L17.3585937,6.71367187 L17.3585937,6.06621094 C17.3585937,5.77734375 17.0796875,5.54492188 16.7376953,5.54492188 C16.3957031,5.54492188 16.1201172,5.77734375 16.1201172,6.06621094 L16.1201172,6.71367187 L15.1904297,6.71367187 L15.1904297,6.71367187 Z M10.6714844,10.3494141 L10.6548828,10.3527344 C10.5320312,10.3759766 9.78828125,10.5253906 9.09765625,10.6947266 L9.09765625,10.5818359 C9.15078125,8.22109375 9.86796875,5.99648437 11.1330078,4.28320312 L11.2890625,4.07070312 L11.5679687,3.984375 C14.76875,2.99824219 18.4443359,2.99824219 21.6484375,3.984375 L21.9273437,4.07070312 L22.0833984,4.28320312 C23.3816406,6.04296875 24.1021484,8.340625 24.11875,10.7710937 C23.2886719,10.4822266 22.5980469,10.3494141 22.5548828,10.3427734 L22.5416016,10.3394531 C17.1560547,9.38984375 12.4445312,10.0306641 10.6714844,10.3494141 L10.6714844,10.3494141 Z M19.8355469,19.6695312 C24.0158203,20.4630859 27.5453125,22.9865234 29.271875,26.5359375 C30.9984375,30.0853516 31.4599609,29.7765625 30.5701172,30.8058594 C30.2214844,31.2109375 27.8308594,30.7328125 26.5957031,30.8058594 C25.4535156,30.8722656 22.2427734,30.7394531 17.0099609,30.8058594 C11.7738281,30.7394531 8.56308594,30.8722656 7.42421875,30.8058594 C6.18574219,30.7328125 3.82167969,31.2109375 3.46972656,30.8058594 C2.58320313,29.7765625 4.22577681,27.4809793 4.7015625,26.6421875 C5.17734819,25.8033957 9.68203125,20.6988281 13.5734375,19.7923828 C11.2392578,18.4908203 9.55917969,15.7150391 9.20722656,12.3216797 C9.72851563,12.1755859 10.5619141,11.9929687 11.0699219,11.8933594 C12.3714844,11.6576172 16.9800781,10.9669922 22.1398438,11.8867187 C22.2128906,11.9 23.1226563,12.0892578 23.9859375,12.4644531 C23.6140625,15.6917969 22.0335938,18.3414062 19.8355469,19.6695312 Z" id="形状" fill="url(#linearGradient-1)"></path>
                </g>
            </g>
        </g>
    </g>
</svg>