<?xml version="1.0" encoding="UTF-8"?>
<svg width="54px" height="54px" viewBox="0 0 54 54" version="1.1" xmlns="http://www.w3.org/2000/svg" xmlns:xlink="http://www.w3.org/1999/xlink">
    <title>编组 2</title>
    <defs>
        <linearGradient x1="50%" y1="17.0083954%" x2="91.9846692%" y2="82.9916046%" id="linearGradient-1">
            <stop stop-color="#1B8BFF" offset="0%"></stop>
            <stop stop-color="#1B63FF" offset="100%"></stop>
        </linearGradient>
    </defs>
    <g id="页面-1" stroke="none" stroke-width="1" fill="none" fill-rule="evenodd">
        <g id="服务类型" transform="translate(-30.000000, -328.000000)">
            <g id="编组-2" transform="translate(30.000000, 328.000000)">
                <rect id="矩形备份-2" fill="#FFFFFF" x="0" y="0" width="54" height="54" rx="8"></rect>
                <g id="团队" transform="translate(10.000000, 10.000000)" fill-rule="nonzero">
                    <rect id="矩形" fill="#000000" opacity="0" x="0" y="0" width="34" height="34"></rect>
                    <path d="M19.7193359,15.7183594 C23.3783203,16.5085937 27.6349609,19.0818359 27.6349609,26.5027344 C27.6349609,28.4816406 25.1613281,28.4816406 17.1494141,28.4816406 C9.03789062,28.4816406 6.66386719,28.4816406 6.66386719,26.5027344 C6.66386719,19.1814453 10.9171875,16.5119141 14.5794922,15.7183594 C11.7107422,14.1345703 10.7212891,10.4755859 12.1058594,7.50722656 C13.4904297,4.53886719 16.9535156,3.44980469 19.6230469,5.03359375 C22.2925781,6.61738281 23.3816406,10.2763672 21.8974609,13.1451172 C21.3994141,14.3337891 20.6091797,15.1240234 19.7193359,15.7183594 Z M11.4417969,15.5988281 C11.7539062,15.5058594 11.8335938,15.1007813 11.5746094,14.9015625 C9.27695313,13.1417969 8.57304688,9.86796875 9.83144531,7.16855469 C10.0173828,6.77011719 10.2398438,6.40488281 10.4955078,6.07617188 C10.7080078,5.80390625 10.4888672,5.40878906 10.1435547,5.43867188 C8.65605469,5.56484375 7.2515625,6.48125 6.534375,8.01855469 C5.53164063,10.1667969 6.06289063,12.7599609 7.84257813,14.2076172 C8.08828125,14.4101562 8.01523438,14.8019531 7.70976563,14.8982422 C4.96386719,15.7548828 2.12167969,18.0359375 2.12167969,23.4248047 C2.12167969,24.2515625 2.6296875,24.65 4.02089844,24.8458984 C4.24335938,24.8757812 4.44921875,24.7164062 4.47246094,24.490625 C5.0203125,18.9390625 8.30742188,16.5251953 11.4417969,15.5988281 L11.4417969,15.5988281 Z M22.5615234,15.5988281 C22.2494141,15.5058594 22.1697266,15.1007813 22.4287109,14.9015625 C24.7263672,13.1417969 25.4302734,9.86796875 24.171875,7.16855469 C23.9859375,6.77011719 23.7634766,6.40488281 23.5078125,6.07617188 C23.2953125,5.80390625 23.5144531,5.40878906 23.8597656,5.43867188 C25.3472656,5.56484375 26.7517578,6.48125 27.4689453,8.01855469 C28.4716797,10.1667969 27.9404297,12.7599609 26.1607422,14.2076172 C25.9150391,14.4101562 25.9880859,14.8019531 26.2935547,14.8982422 C29.0394531,15.7548828 31.8816406,18.0359375 31.8816406,23.4248047 C31.8816406,24.2515625 31.3736328,24.65 29.9824219,24.8458984 C29.7599609,24.8757812 29.5541016,24.7164062 29.5308594,24.490625 C28.9830078,18.9390625 25.6958984,16.5251953 22.5615234,15.5988281 L22.5615234,15.5988281 Z" id="形状" fill="url(#linearGradient-1)"></path>
                </g>
            </g>
        </g>
    </g>
</svg>