<?xml version="1.0" encoding="UTF-8"?>
<svg width="16px" height="16px" viewBox="0 0 16 16" version="1.1" xmlns="http://www.w3.org/2000/svg" xmlns:xlink="http://www.w3.org/1999/xlink">
    <title>选择-未选择</title>
    <g id="页面-1" stroke="none" stroke-width="1" fill="none" fill-rule="evenodd">
        <g id="选择" transform="translate(-339.000000, -160.000000)" fill-rule="nonzero">
            <g id="编组-2" transform="translate(20.000000, 158.000000)">
                <g id="选择-未选择" transform="translate(319.000000, 2.000000)">
                    <rect id="矩形" fill="#000000" opacity="0" x="0" y="0" width="16" height="16"></rect>
                    <path d="M7.9921875,13.7378437 C4.82757813,13.7378437 2.26215625,11.1724219 2.26215625,8.0078125 C2.26215625,4.84320313 4.82757813,2.27778125 7.9921875,2.27778125 C11.1567969,2.27778125 13.7222187,4.84320313 13.7222187,8.0078125 C13.7222187,11.1724219 11.1567969,13.7378437 7.9921875,13.7378437 Z M7.9921875,14.734375 C11.7071719,14.734375 14.71875,11.7227969 14.71875,8.0078125 C14.71875,4.29282812 11.7071719,1.28125 7.9921875,1.28125 C4.27720312,1.28125 1.265625,4.29282812 1.265625,8.0078125 C1.265625,11.7227969 4.27720312,14.734375 7.9921875,14.734375 Z" id="形状" fill="#DCDCDC"></path>
                </g>
            </g>
        </g>
    </g>
</svg>