<?xml version="1.0" encoding="UTF-8"?>
<svg width="16px" height="16px" viewBox="0 0 16 16" version="1.1" xmlns="http://www.w3.org/2000/svg" xmlns:xlink="http://www.w3.org/1999/xlink">
    <title>编组</title>
    <g id="页面-1" stroke="none" stroke-width="1" fill="none" fill-rule="evenodd">
        <g id="家医签字" transform="translate(-15.000000, -409.000000)">
            <g id="编组" transform="translate(15.000000, 409.000000)">
                <g id="选择-选择备份" fill-rule="nonzero">
                    <rect id="矩形" fill="#000000" opacity="0" x="0" y="0" width="16" height="16"></rect>
                    <path d="M7.9921875,14.734375 C11.7071719,14.734375 14.71875,11.7227969 14.71875,8.0078125 C14.71875,4.29282812 11.7071719,1.28125 7.9921875,1.28125 C4.27720312,1.28125 1.265625,4.29282812 1.265625,8.0078125 C1.265625,11.7227969 4.27720312,14.734375 7.9921875,14.734375 Z" id="形状" fill="#1B8BFF"></path>
                    <path d="M7.31718363,10.995562 C7.14714919,10.995562 6.97778683,10.9303709 6.84807677,10.8006609 L4.19406104,8.13589197 C3.93531299,7.87579978 3.93531299,7.45373802 4.19406104,7.19364582 C4.45348116,6.93355362 4.8735267,6.93355362 5.13227475,7.19364582 L7.31718363,9.38729164 L11.4921002,5.1955732 C11.7508483,4.93480893 12.1708938,4.93480893 12.430314,5.1955732 C12.689062,5.4556654 12.689062,5.87705508 12.430314,6.13714728 L7.78629049,10.8006609 C7.65658042,10.9303709 7.48654599,10.995562 7.31718363,10.995562 Z" id="路径" fill="#FFFFFF"></path>
                </g>
                <g id="对号" transform="translate(3.000000, 5.000000)"></g>
            </g>
        </g>
    </g>
</svg>