<?xml version="1.0" encoding="UTF-8"?>
<svg width="169px" height="110px" viewBox="0 0 169 110" version="1.1" xmlns="http://www.w3.org/2000/svg" xmlns:xlink="http://www.w3.org/1999/xlink">
    <title>编组 11</title>
    <g id="页面-1" stroke="none" stroke-width="1" fill="none" fill-rule="evenodd">
        <g id="服务类型---2" transform="translate(-14.000000, -217.000000)" fill-rule="nonzero">
            <g id="编组-11" transform="translate(15.000000, 218.000000)">
                <g id="身份证正面-(1)">
                    <path d="M166.962482,102.093799 C166.962482,105.136901 164.500337,107.603822 161.463127,107.603822 L5.50096009,107.603822 C4.04258788,107.603822 2.64397022,107.023252 1.61289582,105.989876 C0.581821417,104.956501 0.00320914988,103.555 0.00320914988,102.093799 L0.00320914988,5.50841988 C0.00320914988,2.46746158 2.46268021,0.00178003327 5.4977506,-4.33071705e-07 L161.461522,-4.33071705e-07 C162.919143,-0.00201389485 164.317831,0.576360798 165.349745,1.60783176 C166.378377,2.6416517 166.955519,4.04220227 166.954459,5.50198855 L166.962482,102.093799 Z" id="路径" stroke="#BDBDBD" fill="#F6F7FB" stroke-dasharray="4"></path>
                    <path d="M15.21269,16.8468154 L27.1710198,16.8468154 L27.1710198,23.0433804 L15.21269,23.0433804 L15.21269,16.8468154 Z M15.21269,32.2706992 L27.1710198,32.2706992 L27.1710198,38.468872 L15.21269,38.468872 L15.21269,32.2706992 Z M15.21269,47.6961908 L27.1710198,47.6961908 L27.1710198,53.8927558 L15.21269,53.8927558 L15.21269,47.6961908 Z M144.833474,37.6874681 C145.027645,37.7984082 145.215396,37.9157795 145.401543,38.0427979 L145.969612,38.4270686 L145.980845,39.110395 C146.011335,41.0912378 145.775442,42.7682012 145.255514,44.0560706 C144.7741,45.2378234 144.074445,46.1205203 143.126059,46.6543189 C142.484173,48.9599428 141.728352,51.0935291 140.651589,52.8862561 C139.420774,54.9523137 137.791989,56.5424545 135.487619,57.3881716 C134.458997,57.7660109 131.830476,57.9412641 129.299842,57.904284 C126.860676,57.867304 124.410278,57.6261299 123.437821,57.1759384 C121.351692,56.2112423 119.875355,54.587337 118.761684,52.5679064 C117.806879,50.8411002 117.12648,48.8297087 116.531131,46.7073772 C115.550651,46.1960883 114.815692,45.3182147 114.323044,44.1348542 C113.779046,42.83573 113.53513,41.1298256 113.567224,39.110395 L113.575248,38.4238528 L114.143317,38.0427979 C114.284531,37.9431126 114.43056,37.8514665 114.579799,37.7662516 C113.937913,29.8316257 114.180225,26.8973416 117.120061,23.5450224 C122.853705,18.838913 136.001128,19.0029113 141.811798,23.270084 C145.775441,27.0147129 146.049848,31.2111412 144.833474,37.6874681 L144.833474,37.6874681 Z M132.782071,60.635982 L132.865516,62.456042 L131.793567,64.2326908 L133.289161,74.0918855 L139.432007,60.8691169 L148.781071,60.5475515 C153.609656,65.1234269 156.706754,75.9071222 155.944515,82.9381493 L103.836238,82.9381493 C103.966219,76.7640938 105.099148,66.2167492 111.237179,60.8514308 L119.684394,60.9302143 L127.59403,74.0082785 L129.091229,64.2326908 L128.014466,62.456042 L128.097911,60.635982 C129.662098,60.5234363 131.232327,60.5234363 132.796514,60.635982 L132.782071,60.635982 Z M139.786648,34.8737709 C136.068526,35.6021165 130.538681,36.238816 126.169044,33.777233 C124.485699,32.8270073 122.022463,34.7708701 120.008547,34.5714995 C119.367093,35.8444812 118.908938,37.2021241 118.647749,38.6039295 L118.421484,39.7937214 L117.225972,39.6779578 C116.990859,39.6584916 116.754271,39.688054 116.531131,39.7647805 C116.421567,39.8008793 116.314375,39.8438393 116.210188,39.8934067 C116.239073,41.2118247 116.42522,42.3051471 116.767024,43.1251388 C117.067106,43.8454453 117.482727,44.3149307 118.029934,44.4853604 L118.727985,44.7040249 L118.918946,45.4066453 C119.506271,47.5820351 120.160995,49.6336223 121.083705,51.3025466 C121.940623,52.8540996 123.035037,54.0873029 124.549888,54.7850998 C125.191773,55.0777243 127.216923,55.2433304 129.338355,55.275487 C131.592978,55.3092513 133.844392,55.1886643 134.587375,54.9153337 C136.259487,54.2931047 137.463022,53.0984893 138.395361,51.5388972 C139.398308,49.8538945 140.115615,47.7187003 140.743058,45.3760965 L140.921181,44.7072405 L141.585533,44.4741056 C142.110274,44.2875977 142.517872,43.8084652 142.811535,43.0801197 C143.132477,42.2681671 143.318624,41.1909231 143.350718,39.8966224 C143.256025,39.8511578 143.158464,39.8119503 143.058661,39.779251 C142.84064,39.7034066 142.610522,39.6685222 142.379866,39.67635 L141.214844,39.7519179 L141.001417,38.6039295 C140.758773,37.3132493 140.35046,36.0594531 139.786648,34.8737709 L139.786648,34.8737709 Z M31.5695412,16.8468154 L67.5825358,16.8468154 L67.5825358,23.0433804 L31.5695412,23.0433804 L31.5695412,16.8468154 Z M31.5695412,32.2706992 L67.5825358,32.2706992 L67.5825358,38.468872 L31.5695412,38.468872 L31.5695412,32.2706992 Z M31.5695412,47.6961908 L67.5825358,47.6961908 L67.5825358,53.8927558 L31.5695412,53.8927558 L31.5695412,47.6961908 Z M50.673663,88.0526468 L104.83116,88.0526468 L104.83116,94.2524274 L50.673663,94.2524274 L50.673663,88.0526468 Z M15.21269,88.0478233 L46.9651686,88.0478233 L46.9651686,94.247604 L15.21269,94.247604 L15.21269,88.0478233 Z" id="形状" fill="#E7E9F0"></path>
                </g>
                <g id="加号" transform="translate(77.000000, 47.000000)">
                    <rect id="矩形" fill="#000000" opacity="0" x="0" y="0" width="14" height="14"></rect>
                    <polygon id="路径" fill="#3A2E2E" points="13.1334975 7.87215468 7.81715796 7.87215468 7.81715796 13.1051387 6.16711669 13.1051387 6.16711669 7.87215468 0.886970629 7.87215468 0.886970629 6.12783134 6.16711669 6.12783134 6.16711669 0.894847297 7.81715796 0.894847297 7.81715796 6.12783134 13.1335115 6.12783134 13.1335115 7.87215468"></polygon>
                </g>
            </g>
        </g>
    </g>
</svg>