<?xml version="1.0" encoding="UTF-8"?>
<svg width="169px" height="110px" viewBox="0 0 169 110" version="1.1" xmlns="http://www.w3.org/2000/svg" xmlns:xlink="http://www.w3.org/1999/xlink">
    <title>编组</title>
    <g id="页面-1" stroke="none" stroke-width="1" fill="none" fill-rule="evenodd">
        <g id="服务类型---2" transform="translate(-14.000000, -361.000000)" fill-rule="nonzero">
            <g id="编组" transform="translate(15.000000, 362.000000)">
                <g id="编组-11备份">
                    <g id="身份证正面-(1)">
                        <path d="M166.962482,102.093799 C166.962482,105.136901 164.500337,107.603822 161.463127,107.603822 L5.50096009,107.603822 C4.04258788,107.603822 2.64397022,107.023252 1.61289582,105.989876 C0.581821417,104.956501 0.00320914988,103.555 0.00320914988,102.093799 L0.00320914988,5.50841988 C0.00320914988,2.46746158 2.46268021,0.00178003327 5.4977506,-4.33071705e-07 L161.461522,-4.33071705e-07 C162.919143,-0.00201389485 164.317831,0.576360798 165.349745,1.60783176 C166.378377,2.6416517 166.955519,4.04220227 166.954459,5.50198855 L166.962482,102.093799 Z" id="路径" stroke="#BDBDBD" fill="#F6F7FB" stroke-dasharray="4"></path>
                        <path d="M104.403737,43.6968128 C104.673259,43.8520898 104.933872,44.0163683 105.192258,44.1941492 L105.980779,44.7319927 L105.996372,45.6884087 C106.038693,48.4608903 105.711256,50.8080479 104.989559,52.6106109 C104.32132,54.2646481 103.350147,55.5001127 102.033718,56.2472425 C101.142733,59.474303 100.093599,62.4605716 98.5989722,64.9697573 C96.8905093,67.8615095 94.6296359,70.087146 91.4310014,71.2708517 C90.0031985,71.7996936 86.3546168,72.0449862 82.8419102,71.9932271 C79.4561688,71.9414681 76.0548352,71.6039094 74.7049937,70.9738 C71.8092939,69.6235656 69.7600294,67.3506708 68.2141711,64.52418 C66.8888315,62.1072602 65.9443879,59.2920212 65.1179998,56.3215053 C63.7570209,55.6058811 62.7368436,54.3771676 62.0530129,52.7208801 C61.2979035,50.9025643 60.9593294,48.5148997 61.0038786,45.6884087 L61.0150159,44.7274918 L61.8035373,44.1941492 C61.9995538,44.054625 62.2022529,43.9263528 62.4094068,43.807082 C61.5184222,32.7014033 61.8547688,28.59444 65.9354781,23.9023751 C73.8941977,17.3154812 92.143789,17.545021 100.209427,23.5175583 C105.711256,28.7587185 106.092152,34.6322386 104.403737,43.6968128 L104.403737,43.6968128 Z M87.4617258,76.1224329 L87.578369,78.6423236 L86.0799528,81.1021111 L88.1705576,94.752262 L96.7572903,76.4452104 L109.825813,76 C116.575416,82.335344 120.904672,97.2654747 119.839182,107 L47,107 C47.1816941,98.4519603 48.7653497,83.8490593 57.3453532,76.4207238 L69.1532323,76.5298004 L80.2096602,94.6365072 L82.3025082,81.1021111 L80.7973625,78.6423236 L80.9140057,76.1224329 C83.1004932,75.9666123 85.2954266,75.9666123 87.4819141,76.1224329 L87.4617258,76.1224329 Z M97.0098742,39.873981 C91.8040561,40.8778132 84.0616096,41.7553354 77.9435936,38.3626929 C75.5867084,37.0530575 72.1378821,39.7321593 69.3181576,39.4573796 C68.4200455,41.211849 67.7785738,43.0830014 67.4128777,45.0150202 L67.0960799,46.6548343 L65.4222196,46.4952848 C65.0930331,46.4684556 64.7617812,46.5091997 64.4493585,46.6149469 C64.295956,46.6646996 64.1458742,46.7239086 64,46.7922241 C64.0404423,48.6093154 64.3010702,50.1161718 64.779637,51.246314 C65.1997872,52.2390664 65.7817063,52.8861282 66.5478626,53.1210205 L67.5252174,53.4223918 L67.7925856,54.3907686 C68.6149117,57.3889693 69.531603,60.2165408 70.8235085,62.5167126 C72.0232957,64.6551189 73.555608,66.3547642 75.6765802,67.3164931 C76.5752972,67.7197987 79.4107491,67.9480431 82.3810087,67.9923624 C85.537752,68.0388977 88.6900018,67.8727003 89.7302667,67.4959862 C92.0714244,66.6384078 93.7565187,64.9919456 95.0619051,62.8424595 C96.4661504,60.520128 97.4704666,57.5773263 98.3489624,54.3486652 L98.5983564,53.4268237 L99.5285283,53.1055087 C100.263229,52.8484568 100.833915,52.1880991 101.245078,51.1842671 C101.694436,50.0652047 101.955064,48.5805081 102,46.7966561 C101.867418,46.7339953 101.730821,46.679958 101.591084,46.6348906 C101.285829,46.5303592 100.963636,46.4822803 100.640691,46.4930688 L99.0095194,46.5972192 L98.7106959,45.0150202 C98.3709653,43.2361581 97.7992781,41.5081309 97.0098742,39.873981 L97.0098742,39.873981 Z" id="形状" fill="#E7E9F0"></path>
                    </g>
                    <g id="加号" transform="translate(77.000000, 47.000000)">
                        <rect id="矩形" fill="#000000" opacity="0" x="0" y="0" width="14" height="14"></rect>
                        <polygon id="路径" fill="#3A2E2E" points="13.1334975 7.87215468 7.81715796 7.87215468 7.81715796 13.1051387 6.16711669 13.1051387 6.16711669 7.87215468 0.886970629 7.87215468 0.886970629 6.12783134 6.16711669 6.12783134 6.16711669 0.894847297 7.81715796 0.894847297 7.81715796 6.12783134 13.1335115 6.12783134 13.1335115 7.87215468"></polygon>
                    </g>
                </g>
                <g id="编组-11备份-2" transform="translate(96.000000, 77.000000)">
                    <g id="身份证正面-(1)" transform="translate(0.000000, 0.065868)">
                        <path d="M35.9919124,21.742198 C35.9919124,22.390266 35.4611505,22.9156288 34.8064226,22.9156288 L1.18583571,22.9156288 C0.871456069,22.9156288 0.569957653,22.791989 0.347690117,22.5719181 C0.125422581,22.3518473 0.000691792788,22.0533797 0.000691792788,21.742198 L0.000691792788,1.17308942 C0.000691792788,0.52547793 0.53087717,0.00037908116 1.18514384,-9.22282334e-08 L34.8060767,-9.22282334e-08 C35.1202942,-0.000428885014 35.421808,0.122743503 35.6442563,0.342408615 C35.8659974,0.562573973 35.9904114,0.860839372 35.9901827,1.17171978 L35.9919124,21.742198 Z" id="路径" fill="#FFFFFF"></path>
                        <path d="M3.27938228,3.58774772 L5.85722582,3.58774772 L5.85722582,4.90738657 L3.27938228,4.90738657 L3.27938228,3.58774772 Z M3.27938228,6.87246373 L5.85722582,6.87246373 L5.85722582,8.19244497 L3.27938228,8.19244497 L3.27938228,6.87246373 Z M3.27938228,10.1575221 L5.85722582,10.1575221 L5.85722582,11.477161 L3.27938228,11.477161 L3.27938228,10.1575221 Z M31.2215873,8.02603487 C31.2634444,8.049661 31.3039178,8.07465675 31.3440452,8.10170695 L31.4665032,8.18354238 L31.4689247,8.3290656 C31.4754973,8.75091175 31.4246461,9.10804285 31.3125659,9.38231133 C31.208788,9.63398091 31.0579641,9.82196267 30.8535216,9.935642 C30.715151,10.4266545 30.5522197,10.8810294 30.3201031,11.2628138 C30.0547775,11.7028075 29.7036622,12.0414486 29.2069119,12.2215551 C28.9851731,12.3020209 28.4185457,12.3393433 27.8730197,12.3314679 C27.3472116,12.3235925 26.818982,12.2722314 26.6093506,12.1763572 C26.1596463,11.9709127 25.841394,11.625081 25.6013211,11.1950171 C25.3954948,10.8272713 25.248822,10.3989195 25.1204834,9.94694144 C24.9091223,9.83805584 24.750688,9.65110128 24.6444886,9.39908931 C24.5272196,9.12242398 24.4746388,8.75912954 24.4815573,8.3290656 L24.4832869,8.18285755 L24.6057449,8.10170695 C24.6361864,8.08047768 24.6676657,8.06096046 24.6998369,8.04281285 C24.5614663,6.35303141 24.6137012,5.72813756 25.2474384,5.01421773 C26.4834334,4.01199073 29.3176084,4.0469163 30.5702079,4.95566604 C31.4246461,5.7531333 31.4837995,6.64681711 31.2215873,8.02603487 L31.2215873,8.02603487 Z M28.62368,12.9132184 L28.6416682,13.3008238 L28.4105894,13.6791841 L28.7329928,15.7788275 L30.057199,12.9628675 L32.0725662,12.894386 C33.1134588,13.868878 33.7810967,16.1654057 33.6167817,17.662754 L22.3838596,17.662754 C22.4118796,16.3479089 22.6561037,14.1017151 23.9792722,12.959101 L25.8002287,12.975879 L27.5053,15.7610223 L27.8280493,13.6791841 L27.5959327,13.3008238 L27.6139209,12.9132184 C27.9511109,12.8892503 28.2896034,12.8892503 28.6267934,12.9132184 L28.62368,12.9132184 Z M30.1336488,7.42682159 C29.3321373,7.58193222 28.1400749,7.71752563 27.1981173,7.19329963 C26.8352405,6.99093674 26.3042435,7.40490751 25.8701059,7.36244897 C25.7318284,7.63354693 25.6330645,7.92267458 25.5767603,8.22120721 L25.5279847,8.47458881 L25.2702695,8.44993547 C25.2195864,8.44578987 25.1685854,8.45208557 25.1204834,8.46842547 C25.0968648,8.47611319 25.0737575,8.48526208 25.0512981,8.49581808 C25.0575248,8.7765923 25.0976522,9.00942947 25.1713345,9.18405733 C25.2360228,9.33745594 25.3256177,9.43743895 25.4435786,9.47373415 L25.5940566,9.5203016 L25.6352218,9.66993372 C25.7618309,10.1332112 25.9029689,10.5701233 26.1018766,10.9255423 C26.2866013,11.2559657 26.5225231,11.5185923 26.8490776,11.6671972 C26.9874482,11.7295154 27.4240073,11.7647833 27.881322,11.7716315 C28.3673486,11.778822 28.8526833,11.7531415 29.0128472,11.6949322 C29.3733025,11.5624205 29.6327473,11.3080116 29.8337306,10.9758762 C30.0499346,10.6170331 30.2045637,10.1623158 30.3398209,9.66342796 L30.3782187,9.5209864 L30.5214322,9.4713373 C30.6345502,9.43161802 30.7224155,9.32958055 30.78572,9.17446994 C30.8549053,9.00155411 30.8950328,8.77214102 30.9019513,8.49650291 C30.8815384,8.48682065 30.8605072,8.4784709 30.8389927,8.47150715 C30.7919942,8.45535511 30.742388,8.44792603 30.6926658,8.44959305 L30.4415233,8.46568623 L30.395515,8.22120721 C30.3432086,7.94634013 30.255189,7.67932798 30.1336488,7.42682159 L30.1336488,7.42682159 Z M6.80541007,3.58774772 L14.5686904,3.58774772 L14.5686904,4.90738657 L6.80541007,4.90738657 L6.80541007,3.58774772 Z M6.80541007,6.87246373 L14.5686904,6.87246373 L14.5686904,8.19244497 L6.80541007,8.19244497 L6.80541007,6.87246373 Z M6.80541007,10.1575221 L14.5686904,10.1575221 L14.5686904,11.477161 L6.80541007,11.477161 L6.80541007,10.1575221 Z M10.9236639,18.7519526 L22.598334,18.7519526 L22.598334,20.0722762 L10.9236639,20.0722762 L10.9236639,18.7519526 Z M3.27938228,18.7509253 L10.124228,18.7509253 L10.124228,20.071249 L3.27938228,20.071249 L3.27938228,18.7509253 Z" id="形状" fill="#E7E9F0"></path>
                    </g>
                    <g id="加号" transform="translate(17.000000, 10.065868)" fill="#000000" opacity="0">
                        <rect id="矩形" x="0" y="0" width="3" height="3"></rect>
                    </g>
                </g>
            </g>
        </g>
    </g>
</svg>