<?xml version="1.0" encoding="UTF-8"?>
<svg width="170px" height="110px" viewBox="0 0 170 110" version="1.1" xmlns="http://www.w3.org/2000/svg" xmlns:xlink="http://www.w3.org/1999/xlink">
    <title>编组 12</title>
    <g id="页面-1" stroke="none" stroke-width="1" fill="none" fill-rule="evenodd">
        <g id="服务类型---2" transform="translate(-191.000000, -217.000000)" fill-rule="nonzero">
            <g id="编组-12" transform="translate(192.000000, 218.000000)">
                <g id="身份证反面">
                    <path d="M167.840369,102.417694 C167.844968,103.883603 167.263524,105.291052 166.224411,106.329237 C165.185297,107.367421 163.773993,107.950931 162.302153,107.950931 L5.53818859,107.950931 C2.47635604,107.942243 -2.36905784e-07,105.467217 -2.36905784e-07,102.417694 L-2.36905784e-07,5.50802222 C0.0138917053,2.46870212 2.48657166,0.0094907848 5.53818859,0 L162.310065,0 C163.777014,0.00327821806 165.182481,0.587241723 166.216862,1.6232512 C167.251001,2.65918154 167.83031,4.06138462 167.827683,5.52220596 L167.827683,102.417694 L167.840369,102.417694 Z" id="路径" stroke="#BDBDBD" fill="#F6F7FB" stroke-dasharray="4"></path>
                    <path d="M63.0783851,28.4525988 L146.869595,28.4525988 L146.869595,22.2968522 L63.0783851,22.2968522 L63.0783851,28.4525988 Z M63.0783851,46.8205527 L146.869595,46.8205527 L146.869595,40.6742619 L63.0783851,40.6742619 L63.0783851,46.8205527 Z M17.2063606,90.8216915 L53.4593429,90.8216915 L53.4593429,84.6754006 L17.2063606,84.6754006 L17.2063606,90.8216915 Z M60.2459973,90.8216915 L146.869595,90.8216915 L146.869595,84.6754006 L60.2475796,84.6754006 L60.2459973,90.8216915 Z M46.3150796,43.4873719 C46.290546,45.2713459 45.549717,46.9712338 44.2580381,48.2074081 C42.9683834,49.446414 41.2343215,50.1195397 39.4429788,50.0765109 L25.3918032,50.0765109 C23.6025283,50.1150671 21.8717228,49.4411867 20.5830733,48.2042562 C19.2936443,46.9678257 18.5531633,45.2698709 18.5260318,43.4873719 L18.5260318,43.3423824 C18.6192696,39.6573395 21.6917545,36.7439127 25.3918032,36.832042 L39.4429788,36.832042 C43.1282961,36.7436483 46.1948974,39.6332325 46.3103326,43.3029832 L46.3150796,43.4873719 Z" id="形状" fill="#E7E9F0"></path>
                    <path d="M15.8835245,30.2003518 C15.8826853,34.7444177 17.6944052,39.1026795 20.9200823,42.3162627 C24.1457594,45.5298458 28.5211302,47.3354777 33.083556,47.3358956 C37.646256,47.3358956 42.0220334,45.5304483 45.2480527,42.3168199 C48.474072,39.1031914 50.286009,34.7446907 50.2851699,30.2003518 C50.2825485,20.7402395 42.5818914,13.0726879 33.083556,13.0726879 C28.5247848,13.0756777 24.1535295,14.8803996 20.9296057,18.0905828 C17.7015049,21.3008134 15.8863247,25.6569492 15.8835245,30.2003518 Z" id="路径" fill="#E7E9F0"></path>
                    <path d="M18.5307788,30.2003518 C18.5302336,36.0643005 22.0761796,41.3512414 27.515303,43.5961139 C32.9536287,45.8382201 39.2124592,44.5980838 43.3750927,40.4536258 C47.5369636,36.3074514 48.7821552,30.0729618 46.5302778,24.6560822 C44.2758425,19.2394647 38.967648,15.7084819 33.0803913,15.709289 C25.0404927,15.709289 18.5228672,22.2006869 18.5228672,30.2082317 L18.5307788,30.2003518 Z" id="路径" fill="#E7E9F0"></path>
                    <path d="M34.010807,20.1361944 L32.9031693,19.6098198 L31.7781258,20.1361944 L32.0059827,19.0109505 L31.0929728,18.2087807 L32.3366918,18.0369997 L32.906334,17.0220737 L33.4617352,18.0369997 L34.7181128,18.2087807 L33.7987735,19.0109505 L34.010807,20.1361944 Z M26.178226,21.6648874 L25.2778749,21.2425268 L24.379106,21.6648874 L24.5499987,20.7681592 L23.8221225,20.1220107 L24.8284904,19.9912051 L25.2652161,19.1685477 L25.7019418,19.9864772 L26.7067275,20.1172828 L25.9804337,20.7634313 L26.178226,21.6648874 Z M41.8164882,21.6648874 L40.9177193,21.2425268 L40.0173681,21.6648874 L40.1898431,20.7681592 L39.4619669,20.1220107 L40.4667525,19.9912051 L40.9034782,19.1685477 L41.3417863,19.9785973 L42.3481543,20.109403 L41.6202781,20.7555515 L41.8164882,21.6648874 Z M37.053646,24.9334533 L36.1532948,24.498485 L35.2671846,24.9334533 L35.4254185,24.0241175 L34.6975423,23.3779689 L35.7039104,23.2455872 L36.1406361,22.416626 L36.5947676,23.2329795 L37.5884768,23.3653611 L36.8606006,24.0115096 L37.053646,24.9334533 Z M30.4378842,24.9334533 L29.5391154,24.498485 L28.6530051,24.9334533 L28.8112392,24.0241175 L28.0833629,23.3779689 L29.0881485,23.2455872 L29.5248743,22.416626 L29.9758411,23.2329795 L30.967968,23.3653611 L30.2400918,24.0115096 L30.4378842,24.9334533 Z" id="形状" fill="#F6F7FB"></path>
                </g>
                <g id="加号备份" transform="translate(77.000000, 47.000000)">
                    <rect id="矩形" fill="#000000" opacity="0" x="0" y="0" width="14" height="14"></rect>
                    <polygon id="路径" fill="#3A2E2E" points="13.1334975 7.87215468 7.81715796 7.87215468 7.81715796 13.1051387 6.16711669 13.1051387 6.16711669 7.87215468 0.886970629 7.87215468 0.886970629 6.12783134 6.16711669 6.12783134 6.16711669 0.894847297 7.81715796 0.894847297 7.81715796 6.12783134 13.1335115 6.12783134 13.1335115 7.87215468"></polygon>
                </g>
            </g>
        </g>
    </g>
</svg>