<?xml version="1.0" encoding="UTF-8"?>
<svg width="26px" height="26px" viewBox="0 0 26 26" version="1.1" xmlns="http://www.w3.org/2000/svg" xmlns:xlink="http://www.w3.org/1999/xlink">
    <title>编组 30</title>
    <g id="页面-1" stroke="none" stroke-width="1" fill="none" fill-rule="evenodd">
        <g id="医生端" transform="translate(-175.000000, -663.000000)" fill-rule="nonzero">
            <g id="编组-35备份-4" transform="translate(175.000000, 663.000000)">
                <g id="企业" transform="translate(1.000000, 5.000000)">
                    <rect id="矩形" fill="#000000" opacity="0" x="0" y="0" width="16.4992099" height="16.4992099"></rect>
                    <path d="M19.1665197,13.8257753 L18.6597757,13.8257753 L18.6597757,6.46080974 C18.6597757,6.01481699 18.2983238,5.65326487 17.8521808,5.65326487 L14.2348065,5.65326487 L14.2348064,0.807594948 C14.2348064,0.361602195 13.8733545,0 13.4272115,0 L5.43199637,0 C4.98610379,0 4.6244515,0.361602211 4.6244515,0.807594948 L4.6244515,13.8257752 L4.44134655,13.8257752 C3.9953538,13.8257752 3.63375161,14.1872272 3.63375161,14.6331699 L3.63375161,15.6915825 C3.63375161,16.1375252 3.99535382,16.4991274 4.44134655,16.4991274 L19.1665197,16.4991274 C19.6125625,16.4991274 19.9740144,16.1375252 19.9740144,15.6915825 L19.9740144,14.6331699 C19.9740144,14.1872272 19.6126126,13.8257753 19.1665197,13.8257753 L19.1665197,13.8257753 Z M11.9198011,10.8756121 C11.9198011,11.3217551 11.5581488,11.683207 11.1122061,11.683207 L7.74720208,11.683207 C7.30115923,11.683207 6.93960713,11.3217551 6.93960713,10.8756121 L6.93960713,10.6333586 C6.93960713,10.1873659 7.30115926,9.82586385 7.74720208,9.82586385 L11.1122061,9.82586385 C11.5581488,9.82586385 11.9198011,10.1873659 11.9198011,10.6333586 L11.9198011,10.8756121 L11.9198011,10.8756121 Z M11.9198011,7.34918922 C11.9198011,7.79518198 11.5581488,8.15678417 11.1122061,8.15678417 L7.74720208,8.15678417 C7.30115923,8.15678417 6.93960713,7.79518196 6.93960713,7.34918922 L6.93960713,7.10693577 C6.93960713,6.66094302 7.30115926,6.29934082 7.74720208,6.29934082 L11.1122061,6.29934082 C11.5581488,6.29934082 11.9198011,6.66094303 11.9198011,7.10693577 L11.9198011,7.34918922 L11.9198011,7.34918922 Z M11.9198011,3.55341781 C11.9198011,3.99946065 11.5581488,4.36101276 11.1122061,4.36101276 L7.74720208,4.36101276 C7.30115923,4.36101276 6.93960713,3.99946062 6.93960713,3.55341781 L6.93960713,3.31126453 C6.93960713,2.86512152 7.30115926,2.50361948 7.74720208,2.50361948 L11.1122061,2.50361948 C11.5581488,2.50361948 11.9198011,2.86517162 11.9198011,3.31126453 L11.9198011,3.55341781 L11.9198011,3.55341781 Z" id="形状" fill="#1B8BFF"></path>
                </g>
            </g>
        </g>
    </g>
</svg>