<?xml version="1.0" encoding="UTF-8"?>
<svg width="26px" height="26px" viewBox="0 0 26 26" version="1.1" xmlns="http://www.w3.org/2000/svg" xmlns:xlink="http://www.w3.org/1999/xlink">
    <title>编组 30</title>
    <g id="页面-1" stroke="none" stroke-width="1" fill="none" fill-rule="evenodd">
        <g id="医生端" transform="translate(-50.000000, -663.000000)" fill-rule="nonzero">
            <g id="编组-35备份-3" transform="translate(50.000000, 663.000000)">
                <g id="订单完成" transform="translate(3.000000, 3.000000)">
                    <rect id="矩形" fill="#000000" opacity="0" x="0" y="0" width="20" height="20"></rect>
                    <path d="M7.06,3.75 C6.84,3.75 6.65,3.56 6.65,3.34 L6.65,1.64 C6.65,1.42 6.84,1.23 7.06,1.23 L12.97,1.23 C13.19,1.23 13.38,1.42 13.38,1.64 L13.38,3.32 C13.38,3.54 13.19,3.73 12.97,3.73 L7.06,3.73 L7.06,3.75 Z" id="路径" fill="#1B8BFF"></path>
                    <path d="M16.72,2.65 L14.28,2.65 L14.28,4.01 C14.28,4.33 14.02,4.58 13.71,4.58 L6.32,4.58 C6.01,4.58 5.75,4.32 5.75,4.01 L5.75,2.66 L3.31,2.66 C2.95,2.66 2.65,2.95 2.65,3.32 L2.65,16.75 C2.65,17.11 2.94,17.41 3.31,17.41 L16.74,17.41 C17.03,17.41 17.37,17.33 17.37,16.74 L17.37,3.31 C17.38,2.96 17.08,2.65 16.72,2.65 Z M14.09,8.49 L9.34,13.23 C9.09,13.48 8.7,13.48 8.45,13.23 L5.91,10.69 C5.66,10.44 5.66,10.05 5.91,9.8 C6.16,9.55 6.55,9.55 6.8,9.8 L8.9,11.88 L13.19,7.59 C13.44,7.34 13.83,7.34 14.08,7.59 C14.21,7.72 14.28,7.87 14.28,8.04 C14.28,8.21 14.22,8.36 14.09,8.49 Z" id="形状" fill="#1B8BFF"></path>
                </g>
            </g>
        </g>
    </g>
</svg>